/* XPM */
static char *result[] = {
/* columns rows colors chars-per-pixel */
"50 50 81 1 ",
"  c #161513",
". c #1B1914",
"X c #201E17",
"o c #272316",
"O c #2C2719",
"+ c #342D1C",
"@ c #3D341D",
"# c #2E2B27",
"$ c #352E23",
"% c #312F2B",
"& c #363122",
"* c #383427",
"= c #33322D",
"- c #39372A",
"; c #3D3A2C",
": c #353534",
"> c #393336",
", c #373836",
"< c #3A3B35",
"1 c #353738",
"2 c #3B3639",
"3 c #373A3A",
"4 c #3A3C3D",
"5 c #41371F",
"6 c #443A1E",
"7 c #433B23",
"8 c #4A3E21",
"9 c #413E2B",
"0 c #403C3F",
"q c #3D403B",
"w c #4D4224",
"e c #43402C",
"r c #534523",
"t c #564822",
"y c #5B4C24",
"u c #544C2B",
"i c #5C4E2A",
"p c #5D522D",
"a c #434233",
"s c #625226",
"d c #645429",
"f c #695629",
"g c #66592F",
"h c #6F5B2C",
"j c #715E2E",
"k c #625730",
"l c #645831",
"z c #6D5E31",
"x c #74602F",
"c c #6F6133",
"v c #736231",
"b c #786633",
"n c #776836",
"m c #7A6A36",
"M c #7D6D39",
"N c #3C3E40",
"B c #413E41",
"V c #3D4344",
"C c #3F4648",
"Z c #414345",
"A c #424749",
"S c #454B4D",
"D c #494B4F",
"F c #474E50",
"G c #494E51",
"H c #465052",
"J c #4A5254",
"K c #4E565A",
"L c #4E595C",
"P c #515B5F",
"I c #806E38",
"U c #83723A",
"Y c #89793D",
"T c #907F40",
"R c #978645",
"E c #988746",
"W c #9A8947",
"Q c #9F8E4A",
"! c #A08F4B",
"~ c #A4934D",
"^ c #AB9B52",
/* pixels */
"14AAAS4>AVCS4:ZAACC:4AASA3,AAAS4>ZVCAC:ZAASA3>SAAA",
"3DVSSS:H4ADS4SZADCCNSZSSD:JZDDF3SZNSDAAAZSCC,JZSDS",
"S33DSSC:4AFGSV43CCCV41SSSS43ASSC:3VFSSZ43CCCC33SSS",
"SSADZ3SSASS2SSCVS>NSASVZ4SSCSD3CSASS3ASAVS44CSAVS3",
"SDFASZASDS4J4SDSZK:SSGZD4SSDSBSVSDSBK3FSDZJ1SSDAZA",
"FFS14VSSFNV3SSSV43SSSS34CFFS3V4DSDAq1SSSS34CSSS:VN",
"VVSqZSS4FSqCCCDS3VSV4CVCSVBSVqSS4SSVVCVSS44SA4AVVS",
":G4SSS:L4CVS4J4SCAC4D4SSF%K4CSS1L4VCSVSZAACS:K4SSD",
"CN4NSDS<D4CHS3S3ASSVV>FSFS:V4SFS,J>CSS4S>ASSA34SSS",
"D4VFAZSSVVCVSS3SSZSS4CSZCSVVSSNSSVCC4SFqCFAADVNSSZ",
"FSSFAVCCAV4J4FSSZK:SFFSD4SSFFNFNCAV4L:SFFAD:SSFF0A",
"SFF>A4VDD0G,DSFZA3ASSS4q4SSS2S3VSSZD,SDSSBVVSSF>F4",
"AASV4SAZSC3DCVDS:4SC;e;eeeee9%SSZDS3CSZDD33SAZCV3D",
":DVSSF:JZSSV3DNSASA-hxxxxzvxvlq3GZSSC4AZSCSS:DASSF",
"VABSFSC,DVVSS1J4SSahfffdddhYUhg,,G4CSS3F2SSFVVN4FS",
"V43DSSCC:VSASA:4VazhfhhhjxW^^Yhg,=VCASS:4CSSDN4SSS",
"FFFFA4VSCDZAqCAVazdhhhhjxW^^^^Yhk4SZA3CCCSZ3CCSFZN",
"SSF4S33CSqSV4SCazdhhhhhx!^^^^^Ujhg<ZA4SSSNS4SSSNDV",
"FSS4:VVSSV:3SCecdfhhhhhY!!!^^Ub!Uhg=:SSSD,3SFSC4:V",
"4ZC4VC3BSSSSqqzffhhhhyt6665bmb!Rjshk4SVCVSSS4NCNAC",
"3DZVFS4HZASSqhffjhhh6@6trty8wMRxhjdfg<AABSSV:F4NCS",
"S4:SDSCVVCS=cffhhjj66tysfhjhxichhhjfj6314SCAC:3ADS",
"FSDS44SSCSV#nshhhjf+yshhhhhhhdpjhhhjm6VASSNZSCASA3",
"SSS4AVCSCq01vshhhjy6sjxhhhhvhhuxhhhjm6VSDVG3CCSAAA",
"FSS34ASSS44#vshhjWp8hp9shbp7dh7bhhhjm64SS33ASSD34Z",
"VZDSASA4SCV=vshxW^m7v. .ye. Ovuvjhhxm6:ASASSVNSSAS",
":JZDSS=P2AS=vsxE^^^gw. ofd. O;vhhhhhm6CAADAS:KZDSS",
"A44SSSC:VAF=nfE^^^~dwiyg6rtwtwvhhhhxm6%C3ACCZ33SSS",
"SCVSA4SAVSD#vm^^^^W5thhdO+hhjcphhhhxm6VqqSNVCAVCFa",
"SFSDAAVDFG44vm~^^^Uf6uhhhchxwpvhhhhbv@VSDCG:SDSSNA",
"SGS,AqSSS4A:-sI~^Um!Mglpg7cpcxhhhhbxr1DSS4NAFFF>AN",
"AACV4SSZSS:CV*sIYm!Rxjguukuchhhhjbxr:VCSS34SCVCV>F",
":D4SFS:K3SCS3S*ym!Rjjhjjjjxjhjhhbxr:CVSASVVS:J4SFS",
"VZ4VDSS4A4ADS1S&iUbhhhjhjjhjhhhbxr=CSS3S>CDSC44AFS",
"S33DSASSACVASS:V-sbvjhhhhhhhhhbxr:VVADF:VDSSS44DDA",
"SSSSA4CCVCNDVFSSZ-smjjhhhjhhhmxr=VVVG3FSSSA1SSSSZV",
"SFF4S4VSD4S4ASSAA4*ybnbbbbbbbvr=CSVAaCSFDNC4SSS4Dq",
"SSS41DSDSV:CSSSS::C-shvvjjvjhr1SSSA:VFSDD3:SSSCV:S",
"3AZDSS4AASDC3AZSCSD3-++&++&+&1S4AZFSAVNBSCSD:AASHS",
"4SBSSFqAAACSAqD0SSSNANCSD4CZASSAVSZCAAVSNCFFqABVSD",
"V31SDFVV:4SSSA=4CSSS13SSSVN:SSHCV:4ASSS:4CDSS4:ADS",
"SSDFV4CSASABCCACDB4FCSSZ4DSSSA4VSSCAZ4CCVSZ3SSSSA3",
"SSFVD43CAABS3SCAZH4CSSVSqSFSAZC1VCAZH:CCSBS3SSSZAA",
"SFF3:VVCSV,3DFSA34SSSC>4VSSFN:3VCSA3:SDSS14SSSC43q",
"VBC4VVN4SSCSCVSVCSSV4CVVCVNCN4CV>DSASSVSVASFN1CVVA",
":JVVSF:L4SSD3JNSSS44F3NCF%KNCSS3LNSSSVSVASDV:K34CS",
"A43DSFC3AAFSS4V4SCCN34ADSS44ASSA3SNSSDVN4SCVV:4VDS",
"SSCSN4SDCAV:SDVDD4CS4CFVNDSCSV4SSCCS>CSCCSNCSVVFS3",
"SFSVAZZSCV,L4DSSBP:SCSAGNSDFV4J4SCA,P:SFSZJ3AASSZS",
"SFG,ZVSSS3A,FSDAZ:SASS2qZFSS3A3GSS3C,DFSD44AASF>S4"
};
