/* XPM */
static char *result[] = {
/* columns rows colors chars-per-pixel */
"50 50 219 2 ",
"   c #0B0A06",
".  c #130D0C",
"X  c #1A1305",
"o  c #1E1906",
"O  c #15140C",
"+  c #1E190D",
"@  c #181207",
"#  c #140D11",
"$  c #151412",
"%  c #1A1513",
"&  c #1D1A14",
"*  c #1C141C",
"=  c #1D1B1B",
"-  c #15141B",
";  c #0F100C",
":  c #251C0C",
">  c #25190C",
",  c #221514",
"<  c #241B15",
"1  c #221E1C",
"2  c #2A1D1B",
"3  c #261916",
"4  c #351F08",
"5  c #1E2116",
"6  c #2D230B",
"7  c #24240D",
"8  c #3C2D0C",
"9  c #34250D",
"0  c #2C2114",
"q  c #24211E",
"w  c #2B231B",
"e  c #282618",
"r  c #332414",
"t  c #3B2B1A",
"y  c #372B16",
"u  c #3D3119",
"i  c #3E3211",
"p  c #38330D",
"a  c #1E1820",
"s  c #231E21",
"d  c #291F22",
"f  c #1E2024",
"g  c #252323",
"h  c #2A2624",
"j  c #2C2925",
"k  c #25252A",
"l  c #27292D",
"z  c #2C2A2B",
"x  c #282728",
"c  c #322B24",
"v  c #322D2B",
"b  c #352B26",
"n  c #35312F",
"m  c #393428",
"M  c #2C2D32",
"N  c #272B31",
"B  c #312E32",
"V  c #2E3133",
"C  c #343333",
"Z  c #3A3534",
"A  c #3C3936",
"S  c #34353A",
"D  c #3B363D",
"F  c #36383A",
"G  c #3C3B3B",
"H  c #43330D",
"J  c #48360B",
"K  c #432C18",
"L  c #483417",
"P  c #553E18",
"I  c #543D0D",
"U  c #493926",
"Y  c #523C23",
"T  c #423934",
"R  c #423D3C",
"E  c #4D3A31",
"W  c #3E403F",
"Q  c #5B4419",
"!  c #56461A",
"~  c #5B430B",
"^  c #6A4B1A",
"/  c #654917",
"(  c #695419",
")  c #71561C",
"_  c #755A15",
"`  c #6E4E12",
"'  c #4E4427",
"]  c #594628",
"[  c #44413E",
"{  c #4B443E",
"}  c #54473A",
"|  c #654923",
" . c #664725",
".. c #6B5527",
"X. c #755727",
"o. c #695237",
"O. c #775A37",
"+. c #714F2B",
"@. c #7C632C",
"#. c #7F633C",
"$. c #353941",
"%. c #3C3C43",
"&. c #3C3F49",
"*. c #353740",
"=. c #423D43",
"-. c #453D49",
";. c #483D47",
":. c #3D4143",
">. c #3D4249",
",. c #454343",
"<. c #4A4544",
"1. c #4B4946",
"2. c #43444A",
"3. c #4A464A",
"4. c #464C4E",
"5. c #4C4B4B",
"6. c #464847",
"7. c #534A45",
"8. c #524E4D",
"9. c #594C4B",
"0. c #554846",
"q. c #54514E",
"w. c #5B524E",
"e. c #535341",
"r. c #4B4D52",
"t. c #4A4851",
"y. c #524654",
"u. c #534D52",
"i. c #574959",
"p. c #584A5A",
"a. c #5D4F56",
"s. c #4E5153",
"d. c #545353",
"f. c #5A5554",
"g. c #565955",
"h. c #5D5956",
"j. c #545659",
"k. c #5B5658",
"l. c #55585A",
"z. c #5C5B5B",
"x. c #63534D",
"c. c #685848",
"v. c #615956",
"b. c #625D5C",
"n. c #6B5C5B",
"m. c #665957",
"M. c #705B50",
"N. c #5E615F",
"B. c #64615E",
"V. c #69615D",
"C. c #736149",
"Z. c #565A60",
"A. c #5C5D61",
"S. c #625E61",
"D. c #6A5F60",
"F. c #5D6164",
"G. c #5F646B",
"H. c #656363",
"J. c #696563",
"K. c #64666A",
"L. c #64696D",
"P. c #6C6A6A",
"I. c #6C6866",
"U. c #756B69",
"Y. c #696C72",
"T. c #666C73",
"R. c #6B7176",
"E. c #6E7479",
"W. c #75787B",
"Q. c #835C18",
"!. c #89661B",
"~. c #966C1D",
"^. c #9A751B",
"/. c #A4791D",
"(. c #855E24",
"). c #825C3C",
"_. c #8F6C24",
"`. c #866626",
"'. c #936A23",
"]. c #936C2C",
"[. c #976927",
"{. c #9B742C",
"}. c #987223",
"|. c #856737",
" X c #966B32",
".X c #9B7A3D",
"XX c #967436",
"oX c #8E7222",
"OX c #A67D23",
"+X c #A67728",
"@X c #A57A31",
"#X c #AB792F",
"$X c #836645",
"%X c #89714C",
"&X c #887F6C",
"*X c #7D807E",
"=X c #9C871A",
"-X c #A8832D",
";X c #AE8142",
":X c #757B82",
">X c #797E83",
",X c #7D838A",
"<X c #7C8388",
"1X c #85898B",
"2X c #858C92",
"3X c #8C939B",
"4X c #899197",
"5X c #90979D",
"6X c #949CA2",
"7X c #9BA3AA",
"8X c #98A1A7",
"9X c #9EA7B1",
"0X c #A3ACB4",
"qX c #ABB4BD",
"wX c #A7B0B6",
"eX c #B0B6BC",
"rX c #ADB7C1",
"tX c #ADB8C1",
"yX c #B2BBC4",
/* pixels */
"F G =.5.h.h.h.h.h.h.5.[ 6.G G 1.q.A R { f.q.q.q.8.1.8.f.q.q.w.,.T A 7.1.[ [ [ [ 1.g.z.h.z.h.v.f.6.6.",
"F R v 8.B.J.J.B.B.B.q.m { R R 8.v.[ R 1.z.1.n j j c v 1.f.q.v.1.R A w.q.T R 1.n 1.V.J.J.V.J.B.f.Z %.",
"4.8.u.b.b.b.B.b.b.H.z.d.f.<.,.f.B.5.{ q.b.<.1 C T v h R B.d.b.f.[ [ f.f.[ { w.d.z.J.J.J.I.J.b.h.d.s.",
"4.8.m.b.b.v.B.B.v.H.B.B.B.B.B.B.B.H.V.H.b.<.& C G C j R z.f.h.B.b.h.h.h.f.B.J.B.N.H.J.V.B.b.b.J.z.5.",
"r.w.m.v.v.h.f.8.8.q.q.8.q.q.q.d.d.d.d.d.q.[ M h z z j ,.q.6.5.q.d.d.q.8.8.q.f.d.w.g.d.q.w.h.b.S.H.6.",
"4.f.B.b.h.<.v h g g g k g g x k x z x M F 4.H.K.z.2.C x g g g x h g h q g q g g g g q h c <.f.b.H.s.",
":.f.J.B.1.h $ $ = = = g k g x g 1 F 5XwXtXyXqX7X7XqXyXwX2.1 g g q q q = q q 1 1 5 = & $ O 1 ,.b.H.j.",
"Z v.V.b.v $ $ g V C F F G G G G %.0XtXeXY.2.;.;.;.=.2.&.S z G F G G A C A G G Z F C v z 1 # j h.H.j.",
":.v.V.f.h . g z F W W R <.5.r.t.L.tXtX:Xi.p.i.p.i.i.i.p.-.B G 5.8.1.1.<.<.3.5.<.<.=.G Z z $ 1 d.H.j.",
"4.h.B.w.h % x M Z ,.,.<.5.d.g.l.E.tXtXZ.i.i.i.i.i.i.i.i.i.*.C 8.8.8.f.8.8.8.8.u.5.3.2.R C = s 8.H.g.",
"4.h.B.w.g & h Z T T R 1.,.8.d.z.:XtXtXi.i.i.p.i.i.i.p.i.i.=.D d.f.h.f.8.h.0.8.f.u.1.1.<.Z s g f.B.6.",
"4.h.B.g.h = v A ;.<.<.8.q.8.f.z.,X3X5Xy.i.p.p.p.i.i.p.p.i.-.G f.f.f.b.v.h.k.8.8.f.8.1.,.B 1 1 8.b.5.",
"6.g.B.w.g 5 Z [ { T T 0.8.d.8.g.,XY.T.r.T.Z.-.p.i.p.p.p.i.=.=.a.v.b.b.v.h.w.a.w.f.8.8.1.Z 1 1 8.h.d.",
"F h.J.f.h = A 1.R T 0.h.h.h.l.E.2Xj.L.:XrX9X-.p.i.p.p.y.i.%.G m.m.b.b.b.v.v.f.f.q.8.8.R Z 1 1 8.h.g.",
"W h.J.g.h 1 Z 1.<.<.f.J.H.h.H.:X2Xj.s.E.3X3X-.i.i.p.p.p.p.*.R D.n.B.D.n.b.v.v.b.f.f.0.<.Z h q 8.B.g.",
":.h.B.g.x q m 6.5.8.m.J.I.S.l.z.2XV N N &.*.=.i.p.i.p.p.y.M 0.x.b.J.v.n.J.J.h.v.b.k.f.3.G s s g.K.d.",
"t.v.J.f.x s G <.6.d.A.J.H.b.Z S :XE.j.V B S -.p.p.p.i.i.y.k 0.k.m.x.x.9.n.D.S.b.b.a.a.1.T 2 g q.H.5.",
"4.j.b.a.j g T 0.x.x.z.N.B.m.} f.K.rXyXS.i.i.p.p.t.-.B l C Z x.M.U.J.n.M.M.M.n.b.h.k.7.' m e 2 1.B.5.",
"4.5.v.0.w $ m o.`.|.U q g U ).XXM.rXrX:Xi.y.-.M N M * A %X%X.X@.m z T $X@X[.|.t h C o...Q 9 7 { z.4.",
"F e.b.0.s   @ J !.^.!.L > < / +X'.6XrX0X%.2.M F &.-.D 5 ] @X#X-X..t 2 L XXOX_./ 6 $ : | ^ 8 q 1.B.d.",
"D w.V.q.h ;   X ~ ~.^. XU d > I {.{ R.Z.g = g -.r.2.s.2.n Y  X@X{.).t r L X.`.`.X.> O X L H r 7.H.s.",
"4.h.V.w.c r 3 . O Q {.Q.^ K , & ] {.Q.{.] q 1 %.2.s.L.G.,Xz U ].#X.XX.2 s w Y (.[.( > . @ 6 2 a.H.g.",
"4.v.H.g.w 4 L 6 # % Q Q._ |.K 2 0 ] @.!.%Xo.m.F.E.l.<X<X4Xj.e y @.!.[.+.> % r | (.'.^ >     & d.J.5.",
"4.h.N.g.h 9 J / r * , P ].'.(.K 2 2 u X.#X+X7.2XF.R.eX3X2.:.1 % y ( +X+X^ : 2 b Q !.[.Q @   = u.B.4.",
"4.7.V.7.q > I / _ K X o ! _._.^ Y e + ' _.-X;XR.:Xr.7X9Xj.*.C , < 8 ].OX^./ : 1 9 _ !._ H @ & 5.P.g.",
":.1.V.0.w   9 I _ ` 8 X + J `.oX!.Q & & H @.,XG.6XE.N M N &.F P 3 @ p oX+X}.) : 5 6 ( _ / 9 1 q.W.l.",
"C ,.b.0.3   . H ` Q.`.t 3 3 K `.~.XXK 1 + i 1XF.5XrXZ.:XS &.F Y | 2 , y X.+X@X( 7 % 3 ~ / H 0 { B.g.",
"6.g.b.a.0     > Q ~./.`.H % > / O.o.o.' + & <XR.>XyXG.:XS &.j x !.) 2 , H _././.X.> 1 6 P K r { z.d.",
"4.h.K.h.e 7 & . , | OXOX_.8 1 2 ,.7. ..X! q A.<XR.tXR.R.j.z m M ^.#X..> + u ]./.[./ 7 % % 6 6 7.V.s.",
"4.b.H.g.c 8 U < O o / /.^.].H q h E  .OX=X! G ,XF.tX:XF.r.z c M `.OX-X( + % 8 oX/.^.( > .   s u.H.6.",
"4.n.V.g.z r ! ' c c m c.O.O.+.w 5.v.n.O. X%X{ ,XZ.tXL.R.%.C T g n |.|.|.9.C A } $XO.O.' e $ 5 8.J.g.",
",.B.n.f.z w A 1.8.k.k.m.a.x.0.j b.b.J.m.V.U.U.Z.L.:XE.4.S S ,.F &.[ V.I.P.H.J.J.V.N.g.s.:.h g q.K.j.",
"F v.B.f.h f A 5.s.g.d.9.0.9.9.A J.P.U.P.J.J.P.H.s.s.2XY.,XN S $.$.V H.P.I.H.K.H.H.z.d.4.R g q d.K.l.",
"W B.V.h.h q G 5.d.z.f.f.h.k.f.8.h.J.H.H.b.J.I.z.E.N.F A.&.&.a f k k P.z.d.z.J.H.H.z.g.u.G g q f.H.j.",
"4.v.I.h.z q A 5.g.z.z.z.b.b.b.b.I.P.J.b.b.b.5.6X9XtX2.>.S V z l M u.S.f.d.b.J.H.H.z.l.4.G g q d.H.g.",
"4.b.J.z.h q F 6.d.g.h.b.H.B.J.V.P.P.P.b.B.B.g.G.qX,XV a 1 N z.d.J.k.S.f.u.d.S.H.z.g.d.6.G g w d.H.4.",
"4.h.V.h.h 5 C 6.d.k.z.l.h.B.H.J.J.H.H.b.B.z.,.Y.4.N x B x 8.H.A.k.b.J.S.S.z.z.H.k.d.d.6.G q q q.H.8.",
"4.h.V.f.h = C 2.d.g.g.d.z.H.g.H.h.H.J.b.J.b.k.d.K.F R 1Xr.S.S.b.S.k.z.z.h.F.l.z.z.g.d.3.C q q 8.F.g.",
"F v.I.f.h 1 C ,.5.d.l.d.z.z.f.d.k.H.H.b.b.b.b.z.Z 9.7.W.r.b.b.l.h.A.H.b.z.g.d.k.z.d.5.6.C 1 q q.H.j.",
"W N.I.f.x = C ,.5.r.g.8.d.h.k.d.S.b.H.H.A.H.K.A.P.<.8.h.l.b.f.z.z.z.H.F.z.z.k.d.8.6.6.=.B 1 s d.H.g.",
":.h.J.f.h & z W 6.4.8.s.5.d.z.h.g.d.g.A.H.K.H.K.h.d.0.7.u.8.z.S.l.z.N.z.g.l.d.8.5.,.6.G n 1 s 8.H.g.",
"4.f.B.d.h & z W ,.6.<.5.q.d.h.z.d.g.l.H.H.H.K.H.S.z.%.<.d.3.z.l.d.g.z.g.d.3.5.8.8.4.5.W V = s d.H.5.",
"4.q.B.w.j = z W ,.6.R [ <.8.8.g.z.z.F.H.H.H.K.F.A.H.2Xf 5.g.z.k.u.f.g.d.8.r.5.5.u.8.6.:.C = g 8.B.6.",
"4.w.b.w.h % z G G R G Z n G 8.l.z.A.S.A.F.F.B.z.l.M a M * 6.d.u.<.d.5.5.q.8.8.6.5.6.,.F V = 1 u.B.5.",
"W 8.V.f.w & z n R G R Z b z T z.z.A.A.z.z.k.h.d.6.5.*.s d G.D G 1.3.8.1.5.1.[ ,.6.,.,.F C = 1 5.h.s.",
"Z w.V.w.h & q z G [ =.T T w Z d.l.z.l.z.l.d.k.u.L.k R 3.E.E.2.x T 8.5.8.8.<.G <.<.,.Z C z = d u.B.d.",
"6.h.b.f.h $ q n A C T T b 3 c R 8.k.l.g.j.u.5.Y.s l D d.Y.t.-.* T R 1.9.3.<.<.3.6.=.R C x = s 8.J.l.",
"4.b.J.f.h % g C c v Z v 2 c 3 T [ u.u.3.<.,.5.B j.j.Z.k S V # * Z ;.3.<.R R T A R A G F j 1 q d.H.s.",
"4.k.B.d.j = z Z v C Z n q b j b R 8.3.5.u.3.5.5.%.k g l =.8.R R T ,.D R ,.<.<.G A [ F C h 5 g q.H.,.",
"4.z z x 1 1 q h x x x g 1 j s q h j x z z z z z j l l j z z x h g v h h h j h h z h h h q f = x l G "
};
