/* XPM */
static char *result[] = {
/* columns rows colors chars-per-pixel */
"50 50 93 2 ",
"   c #120D14",
".  c #161619",
"X  c #1B151D",
"o  c #1D1420",
"O  c #1A1F21",
"+  c #201620",
"@  c #221C24",
"#  c #1E2024",
"$  c #212326",
"%  c #25252A",
"&  c #27292D",
"*  c #2A2B2E",
"=  c #312F2F",
"-  c #32312F",
";  c #272B31",
":  c #2C2D32",
">  c #312D34",
",  c #2E3033",
"<  c #343535",
"1  c #3A3336",
"2  c #363837",
"3  c #33353A",
"4  c #3A363A",
"5  c #363A3B",
"6  c #3B3B3C",
"7  c #403B3F",
"8  c #353740",
"9  c #353941",
"0  c #3C3E41",
"q  c #3C3F49",
"w  c #403741",
"e  c #413E42",
"r  c #453D49",
"t  c #4A3E4A",
"y  c #3D4344",
"u  c #3F4648",
"i  c #414345",
"p  c #424649",
"a  c #4A444E",
"s  c #454C4D",
"d  c #494B4E",
"f  c #4F4651",
"g  c #474D50",
"h  c #4A4E52",
"j  c #524654",
"k  c #534A55",
"l  c #574959",
"z  c #584A5A",
"x  c #465152",
"c  c #4B5255",
"v  c #4D565A",
"b  c #4E595C",
"n  c #525456",
"m  c #53565B",
"M  c #525A5D",
"N  c #59585D",
"B  c #555A61",
"V  c #595D62",
"C  c #536063",
"Z  c #5C6165",
"A  c #5F646B",
"S  c #61666A",
"D  c #68676C",
"F  c #64696E",
"G  c #656A71",
"H  c #696C72",
"J  c #696F78",
"K  c #6C7176",
"L  c #6E7479",
"P  c #71767D",
"I  c #72787B",
"U  c #757B82",
"Y  c #797E84",
"T  c #778086",
"R  c #7D838A",
"E  c #7F888F",
"W  c #80868D",
"Q  c #82898E",
"!  c #858C92",
"~  c #899197",
"^  c #8C939B",
"/  c #929BA2",
"(  c #989DA1",
")  c #98A0A7",
"_  c #9BA3AA",
"`  c #9EA7B1",
"'  c #A4ACB5",
"]  c #A7B0B6",
"[  c #ABB4BD",
"{  c #B0B6BC",
"}  c #ADB7C1",
"|  c #ADB8C1",
" . c #B2BBC4",
/* pixels */
"2 6 p p p p 6 5 i y y p y 2 y p p p p 2 6 p p p p 5 4 p p p p y 2 e y y p u 2 e y p u p 2 6 p p p p ",
"6 h i d s s < v 6 p x s 6 x i i s y u 6 d i s s s < b e s s s 6 x y e s x p i s i s u u < v e s s s ",
"p 6 5 s x u u < 6 y s d x y 6 6 u u u y 6 5 s s s s 6 5 p d s u 2 6 e s s d i 6 2 y u u u 2 2 p x p ",
"g s p s p 6 p s p s d 2 p s i y s 2 y s p p u e 6 s s p s s 5 u s y s s 6 y x p y s i 6 u s s y s 4 ",
"s x x p i y i s s s 7 M 2 s s s i v - x s s i g y p s s s 6 c 5 x s s e v 2 x s s p s 6 p x s s 6 c ",
"s s p 2 y i s s s y y 2 s s x p 6 2 s s s y 2 0 x S K F n p 6 s s s p e 2 p s x x 2 6 p s s s 6 y 6 ",
"y i p y e x p e x p 6 u p y s p 5 y s y 2 x ]  .] _ _ [  .} ] / p s p y y p y s s 6 5 s p e u y 6 s ",
"6 c 0 u s s 2 v 6 u u s 6 v e s u p s 6 < , i i 7 a t r a H [ } ] e y p p p y s p p u s - v 2 p s x ",
"y 6 6 y x d s 2 s 6 p x s 2 p 4 u g x , > r z l z l l l z j I } | A 5 u s s 6 y 6 y x s s 2 i i s d ",
"s 6 e s p i s s y y p e s s 2 s g i p , 8 l l l l l z l l z V } | I y u y p x e y d p p s y 6 s x y ",
"s s s x i y y y u i 6 M 2 x x s p v > 3 w z z z l l l l z z z { { U e e v < s d s s s 2 i s s x 2 c ",
"x x s 1 s 6 y s s 6 s 2 s d s i i 5 r 8 w l l z l l l l z z f / ^ R y p 6 p s x d 2 y e s x d 6 c 2 ",
"p p s y 2 s s i x i < s p i s s 5 5 s 2 w z z l l l l t V F x H K W y < y p p s x 0 2 p s p p y < d ",
"6 d y s s x 2 x i x x y 6 s e s p s s : w z z z l l l f ` [ U S n Q K m y y y p d y p x - x e s x s ",
"6 p e s x s i y i i u s p 6 x 6 s s s : 8 z l l l l l f ^ ^ L c n ~ Y Z y s e p 7 p x s y y p 0 s s ",
"i 6 6 s s s y i < 0 s p s s - y p s s p ; l l l l l l 8 9 y ; ; - ! N n i s s 2 5 y s s s 0 2 p d s ",
"s x x s i 6 u s i p i y 6 u p i p i < y % a z l l l l f 3 > > B L I 3 * i 6 u u u s i 5 u u s s i y ",
"s s s 6 s 5 5 u s y s u 6 s p i i s 5 p : & % < u a l l l l A } { C i i p 2 s s s 6 d 6 s p x e d i ",
"s x s y - u y p s y - 6 s x s s < e s d d u 5 . ; & : r z t U } { x p < < s s s d 2 5 s x s u 6 - y ",
"6 y u 6 y u 6 7 s s p s u u s i s s s 6 6 i 5 i j 0 8 : t w ' } ) e x p s s y p u s s s 0 6 u y i i ",
"6 s y y s s 6 s y s s d y s s y s s u 2 s 6 s h p j r % ; & B J y y i s s s y s e s p p < x e 6 y x ",
"s 6 2 d x s p y i i x y s y 6 6 p u u 0 2 R F H k p 0 & a g s 5 6 s 6 x p s i 6 5 s y u u < 6 y x s ",
"s s s d e 6 p s y p y 2 u s i s s 6 p p M ~ T Y m L V M p u 6 u s s y p 2 y s p s d i p s u y s s 6 ",
"s s s 6 p y y s i y 6 M 6 d s s y v < , y s ~ [ K Z ! p 6 6 x 6 s y p 2 m 2 s x s i d 6 y u s p 7 x ",
"x d s 2 y i s x s 6 e 2 x s s p 6 9 p 3 8 m ` _ c P K K 9 y 5 d d x e 6 2 s d d s 2 y y p s x 6 i 6 ",
"e y x p i d p 2 s u 0 x p 4 s s p p u 3 q ; < : P / A R u u s p 2 s s 0 s s 6 y x p i s u e s p y s ",
"6 c i d x s 2 M 5 p s x 0 v e s g u & 3 q 3 U M } / V E p s h 6 c 7 y s s p i s p s p s - b e s s s ",
"y 6 6 s s p y 2 e p d s s 2 p 6 u u % % q 3 L S } Y K Y y x s u 2 p 6 x x s y y 2 p u u y 6 y p d p ",
"x i y s p 6 s i e s s 6 s s 6 y p 5 : < 3 b K J { K T F p x 6 p s 6 p s e i s y y p y e p p e y s e ",
"s d x s i y i s x d 6 M 5 g g p p h : y 3 g C Y | A Q M x 4 c 5 s d s y v 2 x s s s d 2 p s s s 2 c ",
"s x s 4 p y s x x 6 s 2 p x g p 5 & % s 3 y K F [ V R p 6 d 4 s s x p p 2 i s x s 4 y y s s x 2 x 2 ",
"p p u 6 2 s s i s u < u u p s s & q 8 , ; 3 s I T A d s 0 - s s i s s 2 y y p s x 6 2 s s i p e - x ",
"6 d y p d s 2 x y s p p y x i s & 5 9 : & E J ! h u s 0 u s s e s 6 p s p p y s p u y s - x 6 p s s ",
"6 i 6 y x s p 6 p 2 p s p 2 c 2 $ # # # 9 u V 3 V K d d 6 s s s 2 c 4 u s s 6 s 6 y s d p 6 p p d s ",
"p 2 2 s s s x p i y y s s s - p y & & # , 5 u g [ ` ( i u x p s p x 0 u p s s 2 6 s s s x 5 < p x s ",
"s x s x p 6 y i i y i s 6 s x d p s < p & o o : W [ S n p i p 6 p y y y d 2 s x x s p 6 p d s x e p ",
"x s s 6 d e y i p e s i i x s p i p 6 s 6 % , % & s H i 7 s y e u x i i p e s d s e s 6 p x s e d y ",
"s s s 0 2 p s s x y < y s s x p 2 5 s s s p I 2 < F y p 6 < p s s s p 2 6 s s s x 2 2 p s s u e - p ",
"6 i i s s s y y s s s s 0 7 i s u p g 6 6 g I s s * d i s s s y 6 i x d s y 6 i s p u s 6 7 y s s s ",
"6 x e s x s 6 s i p p i y s p e p s x 6 p M M s y N x i s s s i s p i p u p y s e u x s 6 x i i s x ",
"y 2 2 s s x y y 2 6 p x s i 2 6 p g s s < s u s c y 6 2 p s x u y 2 6 i s s p 2 2 u x s s 6 2 i s s ",
"s s s s i 6 u s y p d 2 y p y y s e 0 s 6 s p 5 n s s s s s 6 u s u y s e y p y y s i 6 s p y s s 6 ",
"x s x i p e 5 u p p e c < s u s e x < s h i X ! n p s s p y u < y y s y c - p p p i s 6 p u x i e x ",
"x s s 6 5 6 y u s y 6 2 s s x p 6 5 s u i X , # - p d x 6 6 5 y y x p 6 < p x s x 2 6 p s s s 6 6 6 ",
"e e p 0 6 u y 6 s s y p u y s u u p s < Z @ X 3 d 5 6 p y < u y 6 s s y p s y s y p y x u 6 y y e u ",
"6 x y y s s < v y s s s 6 v i u g s & u L I u 5 & S M e y s x 6 c e s s d p y s i x s u - v 6 0 y s ",
"y 6 6 s d s s 2 p y x s s 2 p 6 s 0 . u g H k < % # D e i s s s < v 6 s s x 6 y 4 s u u y < y 0 s s ",
"x i y s y y y d y p p 2 p x 6 s s 2 o   * & & M c v , 0 s u e u s p y p 2 i x y u s e y x y 2 s x 6 ",
"s s x y i i y s p u 1 C 2 s s x y m - y p y % $ $ 6 p s u 1 v 2 x y p 2 M < s x d s d 6 i y s s 2 n ",
"d x s 1 p 6 s s p 2 s 2 s x d i i 2 p p s s 6 i e p s x 4 s 4 s s s 6 p 6 p s s x 2 i y y s x 6 c 4 "
};
