/* XPM */
static char *result[] = {
/* columns rows colors chars-per-pixel */
"50 50 92 1 ",
"  c #110B13",
". c #14141B",
"X c #1C151D",
"o c #191A1C",
"O c #1D1420",
"+ c #201620",
"@ c #201A22",
"# c #1E2024",
"$ c #232426",
"% c #25252A",
"& c #27292D",
"* c #2B2B2E",
"= c #32312F",
"- c #272B31",
"; c #2C2D32",
": c #312D34",
"> c #2D3135",
", c #343534",
"< c #3A3336",
"1 c #363837",
"2 c #33353A",
"3 c #3A363A",
"4 c #363A3B",
"5 c #3B3B3D",
"6 c #403B3E",
"7 c #353740",
"8 c #353941",
"9 c #3C3E41",
"0 c #3C3F49",
"q c #403741",
"w c #413E42",
"e c #453D49",
"r c #4A3E4A",
"t c #3D4344",
"y c #3F4648",
"u c #414345",
"i c #424649",
"p c #4A444E",
"a c #454C4D",
"s c #494A4E",
"d c #4F4651",
"f c #464D50",
"g c #4A4E52",
"h c #524654",
"j c #534A55",
"k c #574959",
"l c #584A5A",
"z c #465152",
"x c #4B5255",
"c c #4D565A",
"v c #4E595C",
"b c #525456",
"n c #53575B",
"m c #52595D",
"M c #595A5E",
"N c #555A60",
"B c #595D62",
"V c #536063",
"C c #5C6166",
"Z c #5F646B",
"A c #616566",
"S c #61666B",
"D c #63696D",
"F c #696B6E",
"G c #666B71",
"H c #696C72",
"J c #696F78",
"K c #6C7176",
"L c #6E7479",
"P c #71767B",
"I c #73787B",
"U c #757B82",
"Y c #797E83",
"T c #778086",
"R c #7A8187",
"E c #7D838A",
"W c #7F888F",
"Q c #82898E",
"! c #858C92",
"~ c #899197",
"^ c #8C939B",
"/ c #939BA2",
"( c #989DA1",
") c #9AA3AA",
"_ c #9EA7B1",
"` c #A3ACB5",
"' c #A7B0B6",
"] c #ABB4BD",
"[ c #B0B6BC",
"{ c #ADB7C1",
"} c #ADB8C1",
"| c #B2BBC4",
/* pixels */
"25iiii54u9tit19iiii15iiii45tiii91wutii15iiui45tiii",
"5guaaa,c5uza9xuiati5suaaa1vwaaa9zt9aziuauati,ctaaa",
"i55aaiy15uaaat55ttyt55aaia55iaay156zaau55tiyt55iaa",
"saiai4iaiaz1iautz5taiitu5aaiaa5yauaa5uzi9at5aiita5",
"zaaaituaaa5m5aaatv,aazusuiafa6x5asa6c1azzuz5izzi5x",
"aai1tuaaz9u1aazu51yaavDFAxyt1t5azait1iaaa55izai5t5",
"uua9taiwzi5yutai1i(']|]))'|`a,aatiituitaa54ii5i95a",
"5z9iaa1c5yya5cwat']]Hierrwut2,a5zttiiiiaiitz=c5iaa",
"t55taaa1a5iza1a5Z{}Uhkkkkkkkr;8a1v1yaz9u5uaas1uiaa",
"a5taauaattutaa1iL}{Bkkkkkkkkk3;azi9ttia9taitat5azu",
"azazututut5m5azaU}}jkkkkkkkkkq44ii9wc1azasa5uaaa6x",
"zas<a9taa6a1aaauW^/dllkkkklkke;iiaua5uaaa6utaza5x1",
"iiit5aiiai1aauttYLHgSBrkkkkklq7auaa1uiiaa51aauut=a",
"5suaaa1xuzat5ibK!bSU{_dkkkkkk929a5azittiauaa,ztaaa",
"5iwazautiutiy1CY!nxL^^hlklkkk72i5x9yia5i5aaauuitaa",
"u55aaatt19aaaibM~:--07<llkkkk-tii,9iiaa51taaa51iza",
"zaaau5tzuiut9y=1UJn::7rllllkd$2taiiau5yytau5iyiaut",
"aaz5a45tatay5at9B{{Slllkpe:%&-51tiauu1aiz5a9iaztau",
"aza5,ttiat=5aaaae{{Yrle;-:Of9;9tiai,1izaa11aaay5=t",
"5uyttt5waaiayyiit({`9i;50r995tyt5iziai9ataaa99tyuu",
"5awuaa5auiaauiaui9Lm&%%edpbityatiauxaitataiy1z55ua",
"a55azaa5uuaiat55iy2544;5ixDGEtaa5a5aiat55aiut,5tza",
"aaia59iaiit5iauaa9ia9tMCLnYR~v4yaatu69gaaatuattaa5",
"aaa5ittay95v5azauc,iiaiQBK]~ft,5ztt5b1aasus5tiza6x",
"zaa55uzaa5t5aaau55aizaFKUg)_n72fast95aazz15iiaa5u5",
"9uaauau6attaa5aauia9iyRZ/P;>-0295ai9ia5taiizi6zita",
"5xuaaz,v5uaa5xwaaya5itWC/{NU>02$c5yaaauaiaii=vtaaa",
"u95aait1wuzaa5u5yiy9t3RKY{ZL70&%=a5aaatt5iitu5tizu",
"auuaa5au9aa6az5ta5taytFTK{JLc2;;y9aatuau5it9iitia9",
"azaauttaza6v1aaauc=aafcQC{UBg2y;yaa9b1zaaaa5uaai6x",
"zaz1a9aaata1aaaiu5yaaa3EN{DK822$;tuu5uaaz1utzza6z1",
"iat51zauay,ytaai,taiiy5aGUIf2%27t1a1ttaaa41aiuu9=a",
"5suuaa1xtiii9zuayta5u9iiaaQKW&;88&yiiitaiita,z5izs",
"5u99zai5u5iai5x1iaati5scLM4My9###$3yaa5a5tast9uuaa",
"i14aaaaauitaaa,tsaaa11i(`]ay2>%&&ytyiaa55aaaa51igi",
"azaau5uittts9aaaii,aaibD]E;OX&t1yttti5aaaai5iaszwu",
"zaawa5tuatauuaziii5asiuFf&&;$1t9yaiui9saa9a5aaauat",
"aaa91aaaat=iaaai11aaay1,D2iIi,iiafi19aaaa4,aaai91i",
"5uuaaatuaaai5wuaiis5tiaz>9uIfaay5usaat5uaaya5wtaaa",
"9ataaa5auiiiuiauiza5iuiaC,annffuaiiiiitawiaa5suyag",
"t55azay915iaau15iaaa11iasz9,stzit15iiai51taaa51iaa",
"aaiau9yauia1ittya69atiau5v5tzi4tattattittau9aitaa1",
"aaaua51yiiwb1ataux,aaaiatn!O5sa,ttitb,iiaua5iiaitz",
"aza555ttat51iazi45aaay559=$*X6>ttzi51taza15iaaa559",
"twt95tt5aatiiyytiia99ytt5s1o@C2t5aatiatitiyay5tt9u",
"5xttaa1vtaza5vtaaay5a55iZ%fuPLi%xwaaaiiaizay=v55ta",
"t55aaaa1utaaa1i5ayi555tF#&%jHgu.,x5aaa9t5ayyy1t9aa",
"zutattuauiu5iztia9ya4ta&bbm%;> +9ita5uatta9ta95aaw",
"aaatuttsuy1V1azaum=aiaai5$$%51f1ayy1m,zaaaa5uuaa1c",
"axa1a5aau5s1aaaut5iuaa6u5aaa5a4iaa9u5iaaa5uttax5x1"
};
