/* XPM */
static char *result[] = {
/* columns rows colors chars-per-pixel */
"50 50 220 2 ",
"   c #0B0A06",
".  c #130D0C",
"X  c #1A1305",
"o  c #15140C",
"O  c #1E190C",
"+  c #1A1407",
"@  c #150D11",
"#  c #151312",
"$  c #1A1513",
"%  c #1C1A14",
"&  c #1B151B",
"*  c #1D1B1B",
"=  c #16151B",
"-  c #0F100C",
";  c #251C0C",
":  c #25190C",
">  c #221514",
",  c #241B14",
"<  c #2B1C12",
"1  c #221E1C",
"2  c #2A1D1B",
"3  c #201718",
"4  c #351F08",
"5  c #2D230B",
"6  c #24240D",
"7  c #3C2D0C",
"8  c #34250D",
"9  c #2D2214",
"0  c #24211E",
"q  c #2B241B",
"w  c #282618",
"e  c #332414",
"r  c #3B2B1A",
"t  c #382A15",
"y  c #3D3119",
"u  c #38330D",
"i  c #1E1720",
"p  c #231E21",
"a  c #291F22",
"s  c #1E2124",
"d  c #252323",
"f  c #2A2624",
"g  c #2C2925",
"h  c #25252A",
"j  c #26292D",
"k  c #2C2A2B",
"l  c #282528",
"z  c #312C24",
"x  c #322D2B",
"c  c #362B27",
"v  c #35312F",
"b  c #373426",
"n  c #2C2C32",
"m  c #272B31",
"M  c #312E32",
"N  c #2E3033",
"B  c #343333",
"V  c #3A3634",
"C  c #3C3936",
"Z  c #33353A",
"A  c #3B363C",
"S  c #3C3C3B",
"D  c #35383A",
"F  c #45340C",
"G  c #432C16",
"H  c #493417",
"J  c #543F19",
"K  c #543D0D",
"L  c #463828",
"P  c #523C23",
"I  c #433935",
"U  c #423D3C",
"Y  c #4A3E32",
"T  c #513F39",
"R  c #3E403F",
"E  c #5B4419",
"W  c #564418",
"Q  c #5B430B",
"!  c #6A4B1A",
"~  c #654818",
"^  c #695419",
"/  c #71561C",
"(  c #775B16",
")  c #6E4E12",
"_  c #4D432C",
"`  c #584728",
"'  c #44413E",
"]  c #4A443F",
"[  c #54473B",
"{  c #5A513E",
"}  c #654923",
"|  c #664825",
" . c #6B5326",
".. c #725425",
"X. c #765729",
"o. c #675439",
"O. c #765938",
"+. c #6E4F2E",
"@. c #7F6432",
"#. c #353941",
"$. c #3C3C42",
"%. c #3C3F49",
"&. c #353740",
"*. c #423D42",
"=. c #453D49",
"-. c #483D47",
";. c #3D4143",
":. c #3D4249",
">. c #454343",
",. c #4A4544",
"<. c #4B4946",
"1. c #43444A",
"2. c #4A464A",
"3. c #464C4E",
"4. c #4C4B4B",
"5. c #464847",
"6. c #534B45",
"7. c #524D4C",
"8. c #594B4A",
"9. c #554946",
"0. c #54514E",
"q. c #5A514E",
"w. c #535341",
"e. c #4B4D52",
"r. c #4A4851",
"t. c #524654",
"y. c #524D52",
"u. c #574959",
"i. c #584A5A",
"p. c #5D4F56",
"a. c #4E5153",
"s. c #545353",
"d. c #5A5554",
"f. c #565955",
"g. c #5D5956",
"h. c #545659",
"j. c #5B5658",
"k. c #55585A",
"l. c #5C5B5B",
"z. c #65554C",
"x. c #685640",
"c. c #765C4A",
"v. c #615A56",
"b. c #625D5C",
"n. c #655958",
"m. c #5E615F",
"M. c #64615E",
"N. c #69615D",
"B. c #75624A",
"V. c #5B5D61",
"C. c #565A61",
"Z. c #635E61",
"A. c #6D5F64",
"S. c #5C6164",
"D. c #5F646B",
"F. c #656362",
"G. c #696563",
"H. c #63666A",
"J. c #64696D",
"K. c #6B696A",
"L. c #6C6667",
"P. c #706D6D",
"I. c #776C63",
"U. c #6A6C72",
"Y. c #666C73",
"T. c #6B7176",
"R. c #6E7479",
"E. c #7B7B7D",
"W. c #73777C",
"Q. c #835C18",
"!. c #89671B",
"~. c #946B1C",
"^. c #9A751B",
"/. c #A5781E",
"(. c #845D26",
"). c #825C3C",
"_. c #8D6D25",
"`. c #866525",
"'. c #936A23",
"]. c #936C2B",
"[. c #9B6C2A",
"{. c #956724",
"}. c #9A7325",
"|. c #856736",
" X c #977738",
".X c #906C29",
"XX c #A67D23",
"oX c #A3732A",
"OX c #A57826",
"+X c #A47831",
"@X c #B07C2E",
"#X c #836645",
"$X c #947844",
"%X c #837754",
"&X c #807B6B",
"*X c #B7831E",
"=X c #99803F",
"-X c #AA822B",
";X c #AE8142",
":X c #757B82",
">X c #7A7E83",
",X c #7D838A",
"<X c #7B848B",
"1X c #82898E",
"2X c #818689",
"3X c #858C92",
"4X c #8C939B",
"5X c #899197",
"6X c #90979D",
"7X c #949CA2",
"8X c #9BA3AA",
"9X c #98A1A7",
"0X c #9EA7B1",
"qX c #A3ACB4",
"wX c #ABB4BD",
"eX c #A7B0B6",
"rX c #B0B6BC",
"tX c #ADB7C1",
"yX c #ADB8C1",
"uX c #B2BBC4",
/* pixels */
"D S U 4.g.g.g.g.g.g.4.' <.C S <.0.C I >.d.0.0.0.7.,.7.0.0.q.0.,.C C 6.6.U ' ] ' <.s.l.g.v.g.g.d.,.5.",
"D U x y.F.G.G.M.M.b.0.v ' ' U 7.v.' ' <.g.<.v g g z x <.d.0.v.<.U C q.0.C U ] B <.G.G.G.M.G.N.s.D ;.",
"3.7.y.b.b.b.M.b.b.F.b.s.d.5.' d.M.<.] 0.M.,.3 B I v l U b.s.M.s.' ' d.d.' ] q.0.g.F.G.G.L.G.b.b.y.s.",
"3.8.v.b.b.v.M.M.v.F.b.F.N.N.F.M.F.F.N.G.b.,.* B S v g ' b.d.g.M.b.v.g.g.g.M.G.M.m.G.G.G.F.v.b.F.l.3.",
"3.q.b.v.v.g.d.8.0.0.0.0.s.s.s.f.s.s.f.s.y.' x l k k k >.0.<.4.0.s.s.7.7.0.0.d.s.0.f.d.0.q.g.v.F.F.5.",
"3.d.N.b.g.,.v d s d d d d d d d d k d d l * l Z 5.l.H.H.3.D k l g d f 0 d 0 d d d f 0 f k ,.g.b.F.s.",
";.v.L.M.<.d # # * * s d d d d d d d p p = >.eXuXeX8X8XwXuXyXeX6XD 0 0 * 1 0 0 * * * * o o 1 ' b.F.h.",
"B v.N.b.x # # d N B V D S S S $.R S C D N Z ;.1.=.1.-.=.1.U.wXyXqXR C B V S S D D v v f 1 o g j.H.h.",
">.g.M.d.f o d k D S ;.U 2.4.4.e.e.2.4.C n =.i.i.u.u.u.u.u.t.:XrXtXH.2.,.,.4.,.,.,.*.S V j # p s.G.s.",
"3.g.M.q.f # d M C >.>.,.4.s.s.k.s.h.s.Z &.u.i.i.u.u.u.u.u.i.V.tXtXR.d.7.s.8.s.8.4.4.1.U B 1 i 8.F.s.",
"3.g.M.q.f % g V C I U <.,.7.s.l.b.l.y.$.=.-.i.i.u.u.u.u.u.u.u.yXtX:Xd.7.s.8.4.f.s.,.2.,.B d d s.M.<.",
"3.g.N.d.f * k C *.9.,.7.0.7.f.b.b.Z.p.=.-.i.i.i.u.u.u.u.i.i.e.6X4X<Xd.l.g.d.y.8.d.7.<.' v 0 p s.b.3.",
":.g.M.f.w * V ' ,.I I 8.7.0.j.G.H.F.b.D =.-.i.i.i.i.i.=.V.Y.e.Y.R.,X4.0.j.q.q.d.s.7.7.2.C 2 1 6.g.s.",
"D g.N.d.f 0 C <.U I 9.d.g.b.j.b.b.7.d.V *.i.i.i.u.i.i.1.0XwX:XH.s.1XR.l.j.v.g.g.d.6.6.U B 1 1 7.l.s.",
"R g.G.f.f * V ] T *.d.L.G.M.v.n.b.g.v.V &.i.u.i.i.u.u.t.4X4XR.a.k.3X:XF.q.v.v.v.d.q.7.,.C 0 0 7.M.f.",
":.g.M.f.d 0 V <.4.y.b.G.L.F.b.n.v.g.M.g.m u.u.u.u.u.u.&.#.%.m m M 3Xl.k.A.A.v.j.b.v.h.2.S a p s.G.a.",
"3.b.G.d.l p I <.2.s.Z.H.Z.b.v.b.L.Z.V.t.h r.y.u.u.u.u.t.Z M Z h.R.:XM V n.L.G.Z.b.p.y.<.S d p y.G.<.",
"3.i.b.d.z d A 9.z.z.g.m.M.z.{ n.A.A.b.0.b N j Z =.1.u.i.u.u.V.tXtXH.z.z.c.B.n.b.f.v.8._ y , w 6.S.<.",
"e.<.j.9.q # b o.`.|.L w f L O. X X .q x L $X X0 n j n =.i.-.:XtXtXU I #X$X].|.r g B o...~ e , ,.g.e.",
"D w.n.9.p   + F !.^.`.F : , ~ oX*X-XE w q W |.{ t.$.&.n =.$.qXuX9Xz q H [.XX{.~ ; o ; } ! 7 w 4.M.a.",
"S q.N.0.f .   X K ~.^.].L c : K -XOX[.+.z B ,.a.1.r.=.l a f V.T.] X.t 2 G X.`.{./ ; o : H 7 e <.G.f.",
"3.g.N.0.z e : @ o E [.Q.! G & O ` +XOX+X_ 2XY.Y.h.1.$.H 2 q L ..[.;XX.w * 2 ` (.[.! X - X 5 9 q.G.f.",
"3.g.G.f.q 8 H 5 @ > ` Q.( |.G 1 < P `.( l.5X>X>Xh.R.V.%X .L q t |.!.]. .; % e | `.{.! :     * y.F.3.",
"3.d.M.f.q 8 F ~ e & > J ].{.(.G 2 1 y L %.3.4XwXT.S.3Xo.}.~ < % t ) oXoX! ; 1 c ~ Q.{.} X   * s.m.5.",
"3.7.n.7.q < F ~ ( G X X W _._.! P w O N #.k.0X8Xe.:XR.I.}.}.E , , 7 ].XX^.~ 9 % 5 ( !.( F X % 7.P.f.",
";.,.G.9.2   8 Q ( ) 7 + ; H `.}.!.W % Z :.j Z m R.7XD.>XX.~.`.~ > O u _.OX}./ 6 % 5 ) ( E 8 1 0.E.k.",
"V >.v.6.<   . F ) Q.`.t , > G `.'. X3 Z :.Z :XC.tX4XD.,XL | [.-X} 3 % r / oX+X^ 6 # < E ) 7 9 ' M.s.",
"5.f.Z.q.w     : E ~.XX_.F O O ~ O.o.j j #.Z R.D.yX>XT.:XY [ X.@X~./ 2 % F {./././ < 1 e J G e ] g.a.",
"3.g.K.f.w 6 O . > ! OX/._.u 3 2 *.[ n ` b k.R.T.tXR.<XI.e z ` ]./.OX .: O y ]./.[.Q 6 o $ 4 5 6.G.a.",
"3.b.G.f.z t P , o O ~ }.^.].H 1 f L N _.` e.S.:XyXD.<X XK e c H '.-X-X^ O O 7 _./.-X^ O - - p e.G.5.",
"3.n.N.d.z e P _ z z V x.O.).+.w S Z j O.Y $.T.J.yXC.2X|.c.T T L O.$X|.|.8.D V [ #XO.O._ w # * a.F.a.",
">.M.Z.d.g w C <.6.j.j.n.8.z.6.g ' :.&.*.D Z 3.W.:XH.d.N.A.l.Z.L.N.M.N.L.K.F.G.G.N.m.f.a.' l w s.G.f.",
"D b.M.d.g 1 D 3.s.f.s.7.8.7.q.A N &.&.Z j 1XT.<Xa.e.l.G.P.P.U.F.Z.F.F.K.K.F.H.F.F.l.s.e.U d 0 s.G.k.",
";.M.N.g.l d S <.s.l.j.q.j.z.d.6.d s s s $.:.C.Z S.W.l.K.K.F.b.Z.Z.b.L.Z.s.l.G.H.F.l.f.4.S d 0 d.H.f.",
"3.b.G.g.g 1 S <.s.l.l.g.b.b.b.b.b.Z n k N &.:.e.wX0X9X4.b.b.l.b.l.j.Z.d.0.b.H.F.M.l.k.3.S d 0 s.G.a.",
"3.b.G.g.g 0 D 5.f.f.l.b.M.b.G.G.K.G.b.d.m * i n <XwXH.s.g.G.H.l.A.j.Z.d.y.d.b.Z.l.f.s.5.S d q s.H.<.",
"3.g.G.f.l 1 B 5.s.d.l.j.l.M.G.H.H.Z.G.v.<.h M k n e.K.1.l.L.F.V.l.Z.H.b.Z.b.l.F.g.s.s.2.S 0 0 0.F.a.",
"3.g.N.d.f * B 5.s.k.k.s.l.F.d.M.g.F.F.M.N.r.2Xl.' D.*.6.v.M.M.Z.Z.j.l.g.g.V.l.l.l.s.s.3.B 0 0 4.S.h.",
"V M.G.d.f 1 B >.e.s.f.s.l.l.d.s.g.F.Z.F.b.a.>XZ.M.N 7.8.g.l.F.k.j.l.H.F.g.k.f.j.k.s.4.>.B d 0 0.M.f.",
"R l.G.g.f * v >.3.4.f.0.s.f.d.f.Z.b.F.F.l.S.U.H.4.G.6.<.8.v.d.j.l.l.F.l.k.l.j.s.7.4.<.*.x 1 p s.H.f.",
";.g.G.d.f % k R <.4.4.s.<.s.l.f.f.s.s.V.f.s.V.F.s.j.<.8.d.b.j.l.k.g.S.l.f.f.s.y.4.>.,.S N 0 d 7.M.f.",
"3.d.M.s.g % k R >.,.,.<.a.f.l.l.f.f.l.F.r.l.l.3.V.s.6.9.d.j.l.l.s.k.g.f.s.4.4.7.4.4.3.R v = p s.G.<.",
"3.q.M.q.f * k R >.,.R ' ,.4.8.f.k.l.S.F.k.s.s 3XF.l.y.g.v.V.V.j.s.d.f.s.7.e.4.4.e.e.5.R B * d 7.M.5.",
"3.0.n.q.f % k S S $.' V v U 4.g.l.S.l.s.<.i n s M l.j.l.y.q.b.y.,.s.4.<.0.7.4.4.7.<.>.S N * p 7.M.4.",
"R 8.N.d.f % g v U S U V c z U j.l.V.l.$.H.a i A r.2.s.8.U U 0.U <.<.7.2.4.,.' U ,.>.;.S B * 1 4.M.e.",
"D q.N.q.f # 0 k S U *.I I f B s.l.V.N 1.R.:Xs.>.h J.7.4.6.U 6.U U <.4.8.7.,.R ,.1.>.V B k * a 7.M.a.",
"5.g.b.d.f O 0 v C V I I c 3 z I 8.e.= :.e.Y.y.D j d J.4.8.>.,.8.-.U 2.8.2.,.,.4.>.>.' v k = p q.G.k.",
"e.b.G.d.l $ d v k x V v 2 z < I *.1.a @ n n h C.s.k.Z 7.y.7.>.*.I *.<.<.U U I C S C S V k * p s.G.e.",
"3.f.G.s.f * k v v B V B 0 c f c U 7.,.,.4.U j d l $.4.4.4.7.-.U U ,.C U ' >.,.I V ' S D f * 0 f.m.5.",
"3.k k d 1 0 d f f l d d 0 f p q f j l k j k k k j k k k k g l l 0 x l l l z k l g l f d 0 * * l k S "
};
