/* XPM */
static char *result[] = {
/* columns rows colors chars-per-pixel */
"50 50 94 2 ",
"   c #180817",
".  c #1B0C1C",
"X  c #151018",
"o  c #19151E",
"O  c #1F1F22",
"+  c #201C23",
"@  c #1E2026",
"#  c #212225",
"$  c #25252A",
"%  c #2A272D",
"&  c #272A2D",
"*  c #2A2C2E",
"=  c #32312F",
"-  c #2B2D32",
";  c #302E33",
":  c #2F3134",
">  c #2F333A",
",  c #343534",
"<  c #3A3336",
"1  c #363837",
"2  c #34353A",
"3  c #3A363A",
"4  c #363A3B",
"5  c #3B3B3D",
"6  c #403B3E",
"7  c #353740",
"8  c #3C3742",
"9  c #373B41",
"0  c #3C3E41",
"q  c #3C3F49",
"w  c #413E43",
"e  c #463D48",
"r  c #483E4B",
"t  c #3D4344",
"y  c #3F4548",
"u  c #414346",
"i  c #424749",
"p  c #4B414E",
"a  c #454B4D",
"s  c #494A4E",
"d  c #4C4351",
"f  c #464C51",
"g  c #4A4E52",
"h  c #534755",
"j  c #544A56",
"k  c #574959",
"l  c #584A5A",
"z  c #475152",
"x  c #4B5255",
"c  c #4D5659",
"v  c #4F595C",
"b  c #535355",
"n  c #52565A",
"m  c #535A5E",
"M  c #5A5C5E",
"N  c #545C63",
"B  c #5A5D63",
"V  c #536063",
"C  c #5C6165",
"Z  c #5E646A",
"A  c #626466",
"S  c #62656A",
"D  c #64696E",
"F  c #696A6C",
"G  c #666D73",
"H  c #6A6F73",
"J  c #6B7075",
"K  c #6D7479",
"L  c #727577",
"P  c #72767C",
"I  c #74797E",
"U  c #79797C",
"Y  c #757C83",
"T  c #7A7E84",
"R  c #7C8185",
"E  c #7D848A",
"W  c #81868D",
"Q  c #82888E",
"!  c #858C93",
"~  c #888E96",
"^  c #8B9196",
"/  c #8D9499",
"(  c #90969D",
")  c #949A9D",
"_  c #939AA2",
"`  c #989EA5",
"'  c #9CA3AB",
"]  c #A5ACB5",
"[  c #A8AEB9",
"{  c #A6B0BB",
"}  c #ACB4BC",
"|  c #ADB7C1",
" . c #AEB9C2",
".. c #B0B7C3",
/* pixels */
"1 5 i i i i 5 1 i 5 i i t 1 t i i i i 1 5 i i i i 4 1 i i i i t 1 u t t i i 1 5 a i i i 4 5 i i i i ",
"5 g u a a a 1 c 1 i z a t z u i a t y 5 s u a a a 1 c u a a a 5 z u 5 a z i u a u a t t , c w a a i ",
"i 5 1 a f i y 1 5 u z a a t 5 5 y y y t 5 1 a i i a 5 5 i a a t 1 5 5 z a a i 5 1 t i y t 5 1 i a a ",
"f a i f i 4 a i i a a < i a u t a 5 5 a a i t u 5 a i i a g 1 i a u a a 6 t a i t a u 5 a a i t a 1 ",
"a a a a i t u a a a 5 V 5 a a a u c = a a i i B P Q ~ ~ ^ R c 1 a a a 6 v , z a a i z 5 y z a a 5 x ",
"z z i 1 t u a a a t 6 1 a a a i 5 5 a f E ' | } ' _ _ { | | } H a a i t 1 i a a f 3 5 y a a a 1 i 5 ",
"u u i 5 t a i 6 z a 5 y i t a i 1 5 4 E ' P j 8 e r e e ^ | | } i a a t t i t a a 5 5 a y t t t 1 g ",
"5 g t i a z 1 c 5 y y a 5 x u a t t 9 : u h k k k k k l w ] | ..D 6 t i i i u s i i y a = c 5 i a a ",
"t 5 5 t s a a 1 a 5 i a a 1 s < y 9 % h k k k k k k k k k W ..} J c 3 y a f t t 5 i a a a , u i g a ",
"a 5 t a i u a a t t i u a z 1 a f < 8 k k l l k k k k k k B ....~ t t t t i a t t a i i a u 5 a a u ",
"a z a a i t u t t t 5 n 1 a a a i , e k k k k k k k k k d < D F _ t 4 5 c , a a a a s 1 i a a z 5 z ",
"a a a < a 5 t a a 5 g 1 a a a i u 4 e k k k k k k k r G W K Y C E W J b 5 i z a a < u u a a a 5 x 4 ",
"a a a t 1 a a i z i 1 a i i a a 1 , 2 l k k k k k k e [  .! Y F S ~ I i u i i i a 5 1 a a i i t , s ",
"1 s i a a a 1 a i a f t 5 a w a y y $ k k k k k k k e ' _ B B @ M H U b i t t a s i a a , a 5 a a a ",
"5 i w a z a i t i u u i i 5 z t a a < e l k k k k k r 8 q 2 9 O B N 3 1 i i 5 a 0 i a a t u i t a a ",
"i 5 1 a a a i u , t i a a i , 5 y a 9 2 l k k k k k k 2 - 1 Z ! [ M 4 y a a a 1 5 t a a s t , i a a ",
"z a a a i 5 t a i i i u 5 y i i i u 1 $ l l k l l l k l l l ~ | ..M t i u 1 t i t a u 5 i y a a u u ",
"a z a t a 4 4 y a u i t 5 a i i w a 5 + 2 < 2 7 q r d k k j / | | c a i a 1 a a a 0 a 0 a i a t s u ",
"a z z 5 = t t a a t = 4 a z z i 1 5 f a i t * % $ - - 7 j r _ | { t a = 1 a a a f 1 < a a a i 5 = u ",
"1 u t 0 t i 5 6 a a a a t y i u a a a 5 5 i 5 ; h 8 9 - - O N Y s u a a a i t i t a i a t 0 t t i t ",
"t a w u a z 5 a u i z a u i i w a i t 5 a 1 & s j d d $ q y y 0 t i u a a s t a u a a t , z 5 5 t a ",
"i 3 1 a a a i 5 u u a i a t 5 t a y i 5 , A C N x 0 f , y f f a 5 a t a i a u 5 1 a i t y , 5 t z a ",
"z i a a 5 t i a t i t 3 i a i a a 5 i a c } ' F g Y Z L a t 5 y a a u u 5 t a i a a u u a y t a a 5 ",
"a a a t i t t a y t 5 m 5 a a s t c , i f ( ^ ) J B W E 0 5 x 4 z t t 5 x 1 z a g i s 5 t y z i 6 x ",
"a z a 3 t u a a a 5 u 1 a a a i 5 4 i 2 t 2 / { H P Z E n t 5 f a a t 5 1 a z a z 1 5 t i z z 5 u 5 ",
"t w a a u a i 6 a t t a a 5 i a y 5 - # q 2 H E 4 / R Y R t z y 5 s i t a a 5 u z i i z t 5 a a t a ",
"1 x u a a a , v 5 i z a 5 x u a a & & : y q 4 @ E ' ! H ` a a 5 c 5 t a a a u a i a y a = n 6 z a a ",
"u 5 6 a z a t , 6 i a a a 5 i 5 5 - 9 7 q q q q 2 ^ Q Z ' a a y , i 5 z a a t 6 5 i y y i 5 6 i a i ",
"a u u a i 5 a u t a a 5 y z 9 t 5 * t y 0 q q q g K R B _ a 5 i a b b a 6 i a u 5 i t t i i t i a t ",
"z z a z u t u a a a 6 n 4 f 5 - $ x = z a 0 q q G Z B R / M z 1 U W Z M n 1 a a a a s 1 i a a i < x ",
"a a a 1 i t a z a t z , a t 9 q 4 , y a f 0 7 t f E N 2 x L L D ] ' D s 1 i a a a 5 u t a a a 5 z 3 ",
"i i y 5 1 a a u z i = y y : > 0 - t z i i y V g 9 Y [ G t , 1 J } } C a t t a a a 4 1 a a u i t = a ",
"5 a u u a a 1 x 6 a i i t = # & $ 0 a 1 u ; g g g c G A t a a , y a 2 i y i y a a i t a , a 5 i a a ",
"t t 5 t z a i 5 i 5 i a i = & * , a a t t - c ~ ! 9 - u 5 a a a 1 x < y a a 5 i 5 t a a u 5 i i a a ",
"a 1 1 a a i a i i y t a a i , t a a a i , 7 9 Z B a 5 1 i a a a a a t t i a a 5 5 a a a z 5 < i z a ",
"a z a a u t u i t 0 t a t a a a i a 1 a 4 : 2 f J c f a a u i 5 i t t t s 1 a a a a i 5 i a a z 6 i ",
"a a z 5 s t t i i w i i t a a a u i 5 a y $ X o u a g a u i t t y z t i i 5 a a z 5 a 5 i z a u a u ",
"a a a 5 , a a a z t , i a a a i 1 4 a a a 4 2 O u T a f w , i a a a i < 6 a a a a 4 1 i a a i 5 , i ",
"5 u u a a a t u a a a i 5 0 5 a t i f 5 5 t K M i i L i i a a t 0 i a a a t 5 u a a i a 5 w t a a a ",
"t s 6 a a a 5 a u i i i u a . # 4 z f 5 s 0 I x f 5 0 s a a a u i i u a i a t a u i a a 5 a u i a a ",
"t 1 1 a a f t t < t i a a 4 . N 5 t z i 1 1 I a a i t M i a f a t < A t a a i 5 1 t a a a 5 1 i a a ",
"a a a a i 5 y a t i a 5 i t : N W Z a M u t b u 5 i a a B a 5 t i S i , 5 t i t t a i 5 a i t a a 5 ",
"a a z i a 5 4 y i i 6 x , i u E J n , a b x u a t i a g a b m 1 s i + 5 c , i i i u s 5 i i a a 6 z ",
"a g f 1 5 5 t y a t 5 , y $ 3 H i 5 a a a i 1 5 t a a g 5 F n & 8 + 5 1 , i a a a 1 5 i a a a 1 5 t ",
"t u i 5 5 y t 5 a a t a t - g t i i a t t y 5 t u t 5 a t - $ 2 , a a t i a t i y i i f i 5 t t t t ",
"5 z u t a a , c w a a a ; 2 b a z a t 5 a 5 t i a = V 6 t i @   a 6 a a a a i a i a a t = c 4 t t a ",
"t 5 5 a a f a 1 i t a a , P z 5 a t y 5 5 5 t a a a , u i a 5 1 1 c 5 a a a t u 1 a y i t , 0 0 a a ",
"a u t a t t t a t i i 3 9 b 5 a a 5 i a 4 t a i t a a 5 a i 5 i a i t i 1 t a t i a t t a t 5 a z 6 ",
"f a z t u t t a i t < V 1 a z a u m = a i a a s t u a a i < c 1 a t y 1 m , a a g a s 5 i t a a < c ",
"a g a < a 5 a a i 5 a , a a a i u 5 i u a a 5 u t a a a 5 a 1 s a a 0 i 5 i a f a 5 u t t a a 5 x 1 "
};
