/* XPM */
static char *_26b6862748d475ea98b43ab1253d828isoJGxTBDaZ37FFF[] = {
/* columns rows colors chars-per-pixel */
"50 50 223 2 ",
"   c #040304",
".  c #0B0C0B",
"X  c #080808",
"o  c #0F120F",
"O  c #111611",
"+  c #131D14",
"@  c #0A3B0B",
"#  c #152816",
"$  c #192B19",
"%  c #182318",
"&  c #19371A",
"*  c #1F2F20",
"=  c #1E3D21",
"-  c #292D28",
";  c #253025",
":  c #243D24",
">  c #2C352C",
",  c #2C3B2D",
"<  c #273B28",
"1  c #31312E",
"2  c #343534",
"3  c #393536",
"4  c #343B35",
"5  c #3B3639",
"6  c #363C3A",
"7  c #3A3C3C",
"8  c #363638",
"9  c #2F3D35",
"0  c #403A3E",
"q  c #094A09",
"w  c #084709",
"e  c #0C580C",
"r  c #1C491D",
"t  c #164819",
"y  c #0F5010",
"u  c #1C521D",
"i  c #165817",
"p  c #076D07",
"a  c #0B740B",
"s  c #136C15",
"d  c #1B621C",
"f  c #1C6C1E",
"g  c #156417",
"h  c #137314",
"j  c #1B741C",
"k  c #1B7B1D",
"l  c #1E4A21",
"z  c #244224",
"x  c #234A25",
"c  c #2B442B",
"v  c #2C4C2C",
"b  c #26452A",
"n  c #225225",
"m  c #235C25",
"M  c #2C532D",
"N  c #245B28",
"B  c #2D5B2D",
"V  c #235328",
"C  c #334233",
"Z  c #354A35",
"A  c #36433A",
"S  c #3A433C",
"D  c #354A3B",
"F  c #3B4C3C",
"G  c #394337",
"H  c #2D5B32",
"J  c #2D5230",
"K  c #325333",
"L  c #335C34",
"P  c #36533A",
"I  c #3B533E",
"U  c #355A3B",
"Y  c #395B3D",
"T  c #385237",
"R  c #2F4B32",
"E  c #1E6B21",
"W  c #1D7821",
"Q  c #246524",
"!  c #246B26",
"~  c #2D632E",
"^  c #2B6D2C",
"/  c #26612A",
"(  c #237A25",
")  c #2B742D",
"_  c #267C2A",
"`  c #2B7C2C",
"'  c #257426",
"]  c #2E6332",
"[  c #2E6B34",
"{  c #336234",
"}  c #326A34",
"|  c #35633A",
" . c #39653D",
".. c #356C3C",
"X. c #3A6B3B",
"o. c #2D7533",
"O. c #2D7933",
"+. c #327234",
"@. c #317C35",
"#. c #34733B",
"$. c #3E723E",
"%. c #337B3A",
"&. c #3A7C3B",
"*. c #3C3E40",
"=. c #403E42",
"-. c #3D4344",
";. c #3D4B44",
":. c #3F4648",
">. c #3F4A48",
",. c #3C5343",
"<. c #3D5C44",
"1. c #3F5D48",
"2. c #3F5048",
"3. c #3C6344",
"4. c #3A6C41",
"5. c #3F6C4B",
"6. c #387B41",
"7. c #414345",
"8. c #414C46",
"9. c #424749",
"0. c #454C4D",
"q. c #484B4F",
"w. c #415444",
"e. c #435946",
"r. c #43524B",
"t. c #415A49",
"y. c #495E49",
"u. c #474E50",
"i. c #4A4E52",
"p. c #465350",
"a. c #4A5254",
"s. c #4E5A5B",
"d. c #4A5957",
"f. c #4C654D",
"g. c #44664B",
"h. c #407640",
"j. c #437C43",
"k. c #47774D",
"l. c #4B6159",
"z. c #566B56",
"x. c #567456",
"c. c #5D745D",
"v. c #5F795F",
"b. c #536163",
"n. c #627C62",
"m. c #078507",
"M. c #069506",
"N. c #1A841B",
"B. c #1C8B1B",
"V. c #19971A",
"C. c #03A503",
"Z. c #06AA06",
"A. c #03B403",
"S. c #01BF01",
"D. c #09B909",
"F. c #1E8921",
"G. c #1E9921",
"H. c #248426",
"J. c #228B24",
"K. c #2A832D",
"L. c #2B8B2D",
"P. c #25882A",
"I. c #229324",
"U. c #239C26",
"Y. c #259529",
"T. c #2A952E",
"R. c #269C2B",
"E. c #299D2F",
"W. c #2D8432",
"Q. c #2D8A33",
"!. c #318436",
"~. c #3A843B",
"^. c #328C34",
"/. c #2B9231",
"(. c #2D9D33",
"). c #3C953D",
"_. c #379B37",
"`. c #1EA321",
"'. c #20AA24",
"]. c #26A52A",
"[. c #2DB92D",
"{. c #38A538",
"}. c #04C304",
"|. c #05CA06",
" X c #03D403",
".X c #04DB04",
"XX c #0FD30F",
"oX c #16DB16",
"OX c #01E501",
"+X c #01EC01",
"@X c #0CEA0C",
"#X c #03F403",
"$X c #00FE00",
"%X c #16E016",
"&X c #24C724",
"*X c #3ADB3A",
"=X c #388541",
"-X c #3E9541",
";X c #468346",
":X c #498649",
">X c #4B8A4B",
",X c #438746",
"<X c #429A44",
"1X c #4F984F",
"2X c #588558",
"3X c #549954",
"4X c #59BB59",
"5X c #6B866B",
"6X c #698769",
"7X c #6F9C6F",
"8X c #659965",
"9X c #728E72",
"0X c #7C9C7C",
"qX c #739873",
"wX c #6CA16C",
"eX c #6ABA6A",
"rX c #7DA27D",
"tX c #52CE52",
"yX c #49C549",
"uX c #83A683",
"iX c #86AB86",
"pX c #89AB89",
"aX c #82B382",
/* pixels */
"8 7 9.9.9.9.7 5 :.-.-.9.-.2 7.7.9.>.>.2 *.:.9.9.;.A 5 :.8.9.9.-.7 -.-.:.9.:.8 *.9.9.9.9.7 7 :.7.9.9.",
"7 i.=.0.u.0.2 d.7 7.0.u.*.p.7.8.0.>.>.S 0.-.r.<.4.C l.7.8.r.0.S r.7.7 0.r.9.7.q.7.0.:.9.2 a.*.0.u.u.",
"9.7 7 0.u.:.:.8 7 :.0.0.0.-.S 6 ;.>.;.;.G G r.#.`.4.D A ;.r.r.;.4 S S r.r.r.7.7 7 -.:.:.:.*.7 9.u.9.",
"u.0.9.0.9.*.9.9.9.0.0.3 8.r.>.;.2.S A 1.2.,.I } J.3.r.,.2.2.C ;.r.;.r.r.7 :.r.9.*.0.-.7 9.9.:.:.9.5 ",
"u.u.u.9.9.-.7.u.u.9.7 b.G r.r.1.F l.c t.3.t.<.3.{ <.3.,.m {.) Z 1.t.t.;.l.4 r.r.0.9.u.7 9.0.u.9.*.a.",
"u.u.9.5 *.7.u.0.u.S ;.C 2.t.1.,.K K 3.3.3. .K H | 3.4.| v n M 4.3.3.,.D Z ;.r.r.8.7 *.>.u.u.9.7 7.*.",
"-.7.9.-.-.i.9.*.r.0.S ,.,.Y 3. .H ] 4.[ } / s ( #.] B #.[ ~ 4...{ 4.4.K I ,.,.2.r.-.7 :.:.*.9.-.7 u.",
"7 i.7 9.0.0.2 s.S ;.;.,.P 5.Y ..[ #.%.) #.! d _ @.Q -X! O.%.%.) 6.] |  . .<.I r.8.8.;.0.2 a.5 9.0.u.",
"-.7 *.*.0.q.r.7 8.A ,.3.<.B #.~ O.!.!.P.P.H.L././.e m.k H.Q.Q.Q._ =X! [ 4.3.P I S >.r.r.u.8 7.7.u.u.",
"9.*.-.u.9.7.0.r.;.;.,.P 4.#.^ W.L.L.Y.R.I.I.J.( k E g k F.Y.I.Y.T.W._ %.^ 3.3.D F r.9.7.u.*.7 0.u.*.",
"0.u.0.u.7.-.-.>.;.,.Z k.] %.!./.Y.].B.h i w w w q q q q w @ t g F.Y.J.` =XN 4.g.1.r.0.4 7.u.u.0.5 i.",
"u.u.u.3 0.S -.r.r.F 3.B ..!.Q.I.R.h y q p M.C.A.}.S.}.A.C.M.p q @ E J.Q._ ..4.3.1.G ;.-.0.u.u.7 a.8 ",
"7.9.0.*.7 0.0.8.t.,.J ..%.K.T.].s q C.#X$X$X#X|.D.@X@X$X$X$X$X+X}.@ @ k P.#...3.1.D 4 8.9.9.9.-.2 u.",
"5 q.-.u.u.u.4 r.>.3.3.[ ) Q.Y.k p OX$X$X$X&X_.!.^ ` ^._.[.@X$X$X$X Xa s P.) [  .<.,.r.p.2 u.=.0.0.u.",
"*.9.=.0.0.u.>.S w.<.U #.O.J.E.a A.$X$X$X#X<X:X! i e i ) ,X[.#X$X$X$X Xs ( W.^ 4.P ,.r.0.-.7.0.*.0.0.",
":.*.8 0.0.9.>.;.C K ..#.!.Y.B.a }.$X$X#X.XI.~.&.^ Q ! &.~.R.|.$X$X$X.Xh H.!.#.B K ;.t.8.u.*.2 9.u.0.",
"u.u.u.0.:.7 -.1.,.<.| o.` Y.G.( k OX$X#XOXOX.XoX&X[.[.&XXX XD.|.OXOXM.g J.( o...U 1.:.6 8.:.9.i.9.=.",
"9.0.u.*.0.6 6 ;.,.Y  .o._ ].V.` &.B.Z..X@X$X$X$X$X#X.XA.|.#X|.Z.Z.h u E J.( %...3.F r.S 9.9.p.*.q.*.",
"u.u.u.7 2 -.-.2.t.Y M ^ W.E.'.` ;X&.@.N.M.|. X.X.X.X X|.}.}.Z.m.s ~ ] E N.K.&.4.3.C C 8.0.u.:.*.1 -.",
"*.7.-.7 -.:.-.S r.3.| %.W.U.`.H.;X>X;X+.m d E j j j j j ' ' ^ B { j.} L.Y.^.) ..Y 1.r.r.*.*.-.-.7.7.",
"7 0.=.:.u.0.S t.F <.X.%.` R.`.( &.>Xj.{ $.X.j.>Xj.v { :X>X>Xj.j.$.{ X.L.I.Q.o.4.U t.w.>.2 0.*.7 :.u.",
"9.7 7 0.u.r.>.S ,.Y 4.O.Q.I.`.d { X.X.;X>X$.X.:XX.:Xh.$.:X:X$.j.>XL { ( I.Q.O.L K t.,.>.>.2 7 -.u.u.",
"u.9.9.0.*.7 :.t.,.<.| ^ K.].`.d x X.;X>X>Xh.{ $.$.:X;XX.j.;XX.j.>XX.K f F.K.!...3.t.F 7.0.:.-.0.9.*.",
"u.u.0.*.9.-.:.2.P Y L =X_ R.'.@.c X.;X>X>Xj. .{ j.>X:Xh.X.$.X.:X:XM c ( E.( %.X.3.I r.S :.:.0.9.=.i.",
"u.0.u.3 *.:.0.r.1.K | ^ Q.E.'.<Xx.x v $.;X:Xj.j.:X>X>X:Xh.$.$.X.b Z x.).B.Q.%.4.3.Z D >.9.u.i.7 *.*.",
"*.=.u.9.7.u.>.S 1.Y H %.W.I.'.3XrX0X6XF 4 c c v K B K Z v , C w.v.iXuX).U.Q.) | g.,.;.r.:.7 u.9.*.u.",
"7 i.9.u.0.0.2 l.A Y 4.%._ (.W.2XrXpXpXuX0Xn.z.F G F F F f.5X0XuXpXpXaX<XR.W.O.4. .e.,.>.1 s.=.0.u.0.",
"7.*.7 0.0.8.;.C F <.4.%.Q.B $ f.rXpXpXpXpXpX0XG w.uXn., c.pXpXpXpXiXuX<XR.W.o.} K ,.;.>.:.7 -.9.u.9.",
"u.7.-.u.9.7 8.2.D 3.X.^ &.$ O x.rXpXpXpXpXuXz.. O 9Xw.X - uXpXpXpXpXuX-XI.L.%.} K ,.>.-.>.9.-.:.u.*.",
"u.0.u.0.9.7.:.t.e.g.L :Xz   % 2XuXpXpXpXpX9X;   X f.*   X 5XpXpXpXpXuX).E.( %.4.4.,.r.G :.u.0.9.5 i.",
"u.0.0.5 9.-.0.r.t.P h.v O . z >XrXpXpXpXpX5XC > G ^ L > 1 5XpXpXpXpXrX~.F.L.%.X.3.Z ;.S u.u.0.7 i.5 ",
"9.9.:.*.4 0.w.8.e.<.K +   $ ` ! x.pXpXpXpXuX0X0Xz.$ C 9X0XuXpXpXpXuXn.E F.K.%.4.3.Z C r.9.7.:.7 2 u.",
"7 q.-.9.0.0.4 y.;.3.Z X   n T.E v qXuXpXpXpXpXqX4   o v.uXpXpXpXuXc.Z j Y.W.o...<.,.;.>.4 u.7 :.0.q.",
"*.7.*.*.i.r.9.G ;.P +   X @.'.^.+.u I 5XuXpXpXv.; X . e.0XpXrX6Xw.* L K.Y.W.^ ..T ,.r.r.>.7 9.7.u.u.",
"9.8 5 9.0.0.r.r.<.< . X c /.V.^.:Xh.B z , F e.f.y.G F y.e.G C : M ;X:XK.I.!.#.L K t.r.8.u.8 2 0.u.9.",
"u.u.u.u.7.7 >.;.e.> - $ } T.].^.;X>X>X;Xj.X.X.L { L L { X.$.j.:X>X>X:XK.L.' #.4.3.r.8.S 9.u.0.u.=.0.",
"u.u.u.5 0.*.:.t.,.> > L +./.R.^.;X>X>X>X>X>X>X>X:X:X:X>X>X>X>X>X>X>X>X` L.) #.4.1.F r.S 8.u.0.=.q.*.",
"9.0.u.*.3 0.8.f.w.% D 4.&.Q.T.@.;X>X>X>X>X>X>X>X>X>X>X>X>X>X>X>X>X>X:X^ ( @.#.3.1.C 4 >.u.0.9.*.2 7.",
"*.7.-.0.0.0.-.Z F Z Y ] m m m x  .>X>X>X>X>X>X>X>X>X>X>X>X>X>X>X>X:XX.m O.} ] Y 1.2.;.p.*.=.-.u.0.0.",
"*.0.=.u.u.0.;.< ; R J l r x u & : ;X>X>X>X>X>X>X>X>X>X>X>X>X>X>X>X$.z Q ) $.{ e.F ,.r.0.7 u.=.:.0.u.",
":.7 5 0.u.0.1., c & & l l l t u r & J ;X>X>X>X>X>X>X>X>X>X>X>Xj.L $ r o.#.4. .Z C ;.r.u.u.7 8 :.u.u.",
"9.9.9.u.9.*.9.t.c & = : M H [ o.%.m # . + v } ;X>X>X>Xj.X.z % . # ^ o.#.{ H <.,.D r.7.S 0.9.-.0.0.7 ",
"u.u.0.7.9.7 6 :.8.8.F g.R 3.3...} &.u u X.M z 2 2 , , G F h.K.i s E ] { 5.v <.;.r.7.0.7 9.9.0.9.=.u.",
"u.u.0.7 7 *.-.:.r.-.S C ,.3.3.3.H B m k 1XL.,X0XuXuXrXwXqXpXaXtX%XM.y Z v ,.t.r.t.8 S 9.0.0.0.7 7 *.",
"*.7.:.*.7 :.*.7 u.r.;.2.2.,.<.U Y <.H r | wXwXuXpXpXrXwXqXeX1X) h E H P ,.t.;.2.-.>.:.u.:.5 :.*.*.7.",
"7 a.-.-.0.0.2 s.*.8.0.r.A d.;.<.t.<.V ].eXpXpXpXpXpXpXpXpX*X|.u 1.D ,.r.r.;.;.0.:.0.u.:.1 s.7 *.*.0.",
"-.7 5 u.u.u.9.8 9.7.0.0.0.4 ;.S r.,.Z i ~.pXpX0X8X9X9X6X3XV.s D c d.S t.r.r.S -.7 0.:.9.-.8 *.*.0.u.",
"u.:.*.u.-.-.9.0.-.9.:.7 8.r.-.8.8.S A Q k.pXpX7X8X2X{ r z 9 7 ;.r.>.;.9.7 7.0.-.:.0.*.-.u.*.7 u.u.*.",
"u.u.u.*.=.*.7.u.:.:.3 b.8 0.0.0.7.s.: V.yXpXpXpXpX4XJ.D >.2 d.C 0.-.>.8 s.4 0.u.0.0.q.7 7.:.0.0.5 s.",
"u.u.0.3 0.*.0.u.:.5 u.2 0.u.u.7.-.7 F V Q #.j.j.h.~ M 8.7 0.5 0.r.0.*.9.7 9.0.u.i.5 7.-.-.0.u.7 i.3 "
};
