/* XPM */
static char *result[] = {
/* columns rows colors chars-per-pixel */
"50 50 27 1 ",
"  c #2F2F2E",
". c #31302F",
"X c #343534",
"o c #3A3336",
"O c #363837",
"+ c #353638",
"@ c #3B3639",
"# c #363A3A",
"$ c #3B3B3C",
"% c #403B3E",
"& c #3C3E40",
"* c #413E42",
"= c #3D4344",
"- c #3F4648",
"; c #414345",
": c #424749",
"> c #454C4E",
", c #484A4E",
"< c #474E50",
"1 c #494E52",
"2 c #465152",
"3 c #4A5255",
"4 c #4D5659",
"5 c #4E595C",
"6 c #50595D",
"7 c #525E62",
"8 c #536063",
/* pixels */
"+$::::$#;=-:=X*;:;:O%::::##;:::&O*--:;O%:::-O#;:::",
"$1;,>>X4$;><&2::>--&<*>>>X5*>><&2*&>>>=>*<-:X4*>>>",
":$#>2--X#;<<<&$#---=$O>>>>#$>>>-O$$<>>;&#----$#;<>",
"<>:>:$:>;><@:>:->#=>::-*&>>:>>O->;><$=<:=>&&:>:->#",
"><>>:;=><>%6$>>>*5.<><;<=:>>>%3$<<>*5X><>;>&;>2>$3",
"<<:O&:,><&&O><,:$#>><:#&=><>#*&>><:$$:<>>#&:><:#;$",
"=;:=&,:&<:&--=>:O=:=&-&-<-&>=$>>&>>&&:=>>&O::$-=#<",
"$2&:<>X6#-->&3;>-:>&>&:><.6$-><$3$=->::>:>->.5$:><",
"=$$=>>>#>$:<<O>O:<>==%>><>.;&>>>O5O->>&=$=<<>X;;<<",
">$=>>;>>==-;:<#:<*:>O=>:=>=$><=>>-=-&:>&*<:;2&$>>*",
"><>>;&;==:@6O,,>;4.<><>>&-<><%2O->=%5X>2>><#;<<>@3",
"<>,@>&=>>%<X><<:*$;><>%:&<><%2O;:>*>&;<><@:&>>>$4#",
":>>=O>>:<:O:::>:O$<::;&$>>:>=O>>;>>#;::><&X:>:;-.>",
"#,=><,O2;<<-&>;>:>>$*:<<>X4*>><$>%><:=%:>;:<X<*><<",
"&:%><>;&::=::&<$>><&>*;>>=&::<<:&2&:->$>$:2>;=:&>>",
":$$>>>-=X&:>>:X&->>>OO>>>==O:<:::.=::>>#$->><&X:>>",
"<>>>;&=>;>:=&=:::;O<-:>:$:<><;*=>>-::O-:->:#:->2;*",
"><<&>##=>*>=$>>:=:$>>>&>$>><*>&X=:::>O>:>$>$>:>&,=",
"<<>&.-=>>=.$><<:X$<<>-$O=><>=.&-;>:XX:>><O#>>>-$.=",
"&&=&=-$%>>:<-=::>>>$&-=-:&%:=&-&%:<>>>&>*>>>&$-=:;",
"&>*-<>$<*:<<=::*>>:O>$&:<$2*=>>=>:=<<:=>*<>-X>&&=<",
":$O><>:&;;>-<&$=:-:&OO;<>>$&->>>$>$<:>;$#>:;-X$=<<",
">>>>&&:>;:=$=<=>>==>&;>;&>>:>=$->>==$=>:>>*;>-=>>%",
"<><$:==>-&$5$<<>*4X:>>:<=:>>=$2#<=;%4X<<<;<$-->:%2",
"><<O=;><>$&O<<>:$O>:><$$=>>>%=$<<<$&$><<<O$::<>$=$",
"&*<:=>;%>-&<:$>>:>>&;>>;>-%>>=<:@>>$>>$;<-:>;%<>=>",
"$3=<<>X5$:<>&3*>>->$>;><<.8%><<$4$->>:;>:>->.5=>>>",
"=&%><>=X**<<>$:$::=&=%>:>>X==<<=X:$>><&=$:--;$&:<:",
">:*<:$:;&><%>>$=>$=>==::&>>&>>$:>$:<*:>*&:=&::&=<%",
"><><:==<<>$5X<>>=4.><<;>=:><<%3O><<%5X<>:>>$:<<>@2",
"<>>O:&<<<&>X><>:=$:>>>$=&<<>%<O><>=>$=>><$==>>>$2@",
":>:&O>>;<:.:->>>X&>::-$$>>;:&.>>:>>X==>>>$O>>;:&.<",
"$>=:><O3=>::&2;>-->$=&:><.4*-><&>$:>;:->>;&>X<$:><",
"&=%&<>:O;$:>>X2$;>>&>$><>:$;$>>>X4O-<>$:$=><;&:;<>",
">X$>>>>>:;->>>X*>>>:X#>>><$X:<>>>>&::>>O$>>><#X><>",
"<>>>=&::&=*>&<><:>X><<>:$:<<<*:&:-=&>O<<>>:$:<>>*;",
"<>>$>&&:>*>==><:;>$><>%>&><<%>=&-<*::&<>>%>&>>>*:;",
">>>=O>>>>=.:>>>>#X>>>-$$>>><*.;>><>X&>>><#X:>>:&X:",
"&=;>><$*>>>>&%:>::>&$:>>>&*:>>>-$:>>>=&*>::>&*->><",
"$>*><>$<*:::&>:*:<>$<*:>>O2*>><*>:*>;:=>*:>>#<;;>>",
"&##>>2==O&:><=O&>><>X#:<<-&O:<2-=X&:>>:OO-><>$O;><",
">>><;$->-:>$=:==>%&>=-<*&:>:<:&=>-=>%=:-=>&$>:->>$",
"<><;:=O-::*4X>->*3X:><=<&:<<:&-O-->&3X::>;>&::>:=<",
"<<>#O&=-<&$X>>>:$$>>>-#$=>>>&&O=->:$X:<>>O&:<>:&$$",
"&*:&&-&$>>=::=>-;:<=&-=&--$:=X-=#>>=:>=:-::>-#;=&:",
"&<==>>X5=><>&3&>>>-#>O=:>.8*-:<&3%><<:->;>>- 5#&&>",
";&$>><>O:*<><O>#>--&&$->>>X*;<<>X3$<>>&;#>--=X=&<<",
">;=>;&;>=::#:>$>>&-:&&<:&>>&>;%;>:-;#:<&:>&->&&><%",
">><=;;&>:-O8O<><*6.>:>>>=:<<;O4O>-:#6X>><>>$:->>@4",
"<<>o:&>>:#>O>><;*$::><%*&><>$>O>>>&;$:><<$**=><$2O"
};
