/* XPM */
static char *_e6631c2c8044287faf683eb2895097ePh31B2geOfKTHLIl[] = {
/* columns rows colors chars-per-pixel */
"16 19 104 2 ",
"   c gray95",
".  c #FEFEFE",
"X  c gray93",
"o  c #C6C6C6",
"O  c #5D5D5D",
"+  c #353535",
"@  c #4B4B4B",
"#  c #9F9F9F",
"$  c #F8F8F8",
"%  c #F4F4F4",
"&  c #FDFDFD",
"*  c #FBFBFB",
"=  c gray96",
"-  c gray97",
";  c #E4E4E4",
":  c #464646",
">  c #6D6D6D",
",  c #CACACA",
"<  c gray86",
"1  c gray59",
"2  c #2F2F2F",
"3  c #ACACAC",
"4  c #F9F9F9",
"5  c gray21",
"6  c #B9B9B9",
"7  c white",
"8  c #3A3A3A",
"9  c #2D2D2D",
"0  c #BBBBBB",
"q  c gray25",
"w  c gray73",
"e  c #EEEEEE",
"r  c #F1F1F1",
"t  c gray47",
"y  c #979797",
"u  c gray64",
"i  c #868686",
"p  c #E6E6E6",
"a  c #343434",
"s  c #2A2A2A",
"d  c gray94",
"f  c #F3F3F3",
"g  c gray19",
"h  c gray99",
"j  c gray31",
"k  c gray85",
"l  c #373737",
"z  c #EFEFEF",
"x  c #929292",
"c  c #959595",
"v  c #A4A4A4",
"b  c #848484",
"n  c gray18",
"m  c #676767",
"M  c #CECECE",
"N  c gray92",
"B  c gray22",
"V  c #F6F6F6",
"C  c gray40",
"Z  c gray79",
"A  c #2C2C2C",
"S  c #B7B7B7",
"D  c #909090",
"F  c gray66",
"G  c #434343",
"H  c gray98",
"J  c #9D9D9D",
"K  c gray35",
"L  c gray61",
"P  c gray37",
"I  c #CBCBCB",
"U  c gray24",
"Y  c gray17",
"T  c gray56",
"R  c #A9A9A9",
"E  c #DADADA",
"W  c gray36",
"Q  c gray82",
"!  c #888888",
"~  c gray71",
"^  c gray20",
"/  c #9A9A9A",
"(  c gray57",
")  c #717171",
"_  c gray78",
"`  c gray91",
"'  c #ECECEC",
"]  c gray26",
"[  c gray90",
"{  c #767676",
"}  c gray70",
"|  c #D8D8D8",
" . c #E2E2E2",
".. c gray34",
"X. c #555555",
"o. c gray81",
"O. c #989898",
"+. c #DFDFDF",
"@. c gray74",
"#. c #3F3F3F",
"$. c #8B8B8B",
"%. c #818181",
"&. c #393939",
"*. c #D7D7D7",
/* pixels */
"  .   X . o O + + @ # $ % X & * ",
"= - = ; : > , = = < 1 2 3 = - - ",
"4 X   5 6 7 $ 8 9 0 7 X q w e r ",
"% 4 t y 7 7 u i p a 7 7 X s d $ ",
"f e g h 7 7 j k h l z 7 7 x c 4 ",
"4 v b 7 7 7 n d X m M 7 7 N B r ",
"V C Z 7 7 7 A = = b S 7 7 7 A f ",
"  q N 7 7 7 s 4 . D F 7 7 7 G ; ",
"$ 2 H 7 7 . 9 f d J u 7 7 7 K M ",
"$ n * 7 7 . 9 f d L v 7 7 7 P I ",
"  U e 7 7 7 Y 4 . T R 7 7 7 j E ",
"V W Q 7 7 7 A = = ! ~ 7 7 7 ^ X ",
"4 / ( 7 7 7 A   X ) _ 7 7 f 2 r ",
"f ` l 7 7 7 B ' h ] [ 7 7 v b 4 ",
"% 4 O S 7 7 { } f Y . 7 % ^ [ $ ",
"4 X ` A | 7  .9 ..D 7 4 X.v e r ",
"= - = o.g O.e +.0 * @.#.$.= - - ",
"  .   X - %.+ &.U n P *.% X & * ",
"4 X 4 . X   .   X . 4 X $ . z r "
};
