/* XPM */
static char *result[] = {
/* columns rows colors chars-per-pixel */
"50 50 224 2 ",
"   c #0E0D09",
".  c #0A0905",
"X  c #130D0C",
"o  c #1A1305",
"O  c #15140C",
"+  c #1D190B",
"@  c #1A1506",
"#  c #160B13",
"$  c #151312",
"%  c #1A1513",
"&  c #1C1A15",
"*  c #1A121A",
"=  c #1E1C1B",
"-  c #17141B",
";  c #0F100C",
":  c #251C0C",
">  c #25190C",
",  c #241C14",
"<  c #221E1D",
"1  c #2B1E1C",
"2  c #251813",
"3  c #351F08",
"4  c #2D230B",
"5  c #24240D",
"6  c #33250E",
"7  c #3B2C0C",
"8  c #2C2214",
"9  c #24211E",
"0  c #2B231B",
"q  c #292717",
"w  c #332414",
"e  c #3B291A",
"r  c #372A17",
"t  c #3F321A",
"y  c #1E1B20",
"u  c #231E21",
"i  c #291F22",
"p  c #252322",
"a  c #2A2624",
"s  c #2C2925",
"d  c #24252A",
"f  c #26282C",
"g  c #2C2A2B",
"h  c #282827",
"j  c #322C24",
"k  c #322D2B",
"l  c #362B28",
"z  c #35312F",
"x  c #383426",
"c  c #2C2D31",
"v  c #312E34",
"b  c #302E3A",
"n  c #2E3135",
"m  c #2F3239",
"M  c #343333",
"N  c #3A3635",
"B  c #3C3936",
"V  c #333439",
"C  c #3B363A",
"Z  c #35393B",
"A  c #3D3C3B",
"S  c #42330E",
"D  c #48360B",
"F  c #432C18",
"G  c #423214",
"H  c #4B3719",
"J  c #543F19",
"K  c #543D0D",
"L  c #463928",
"P  c #523C23",
"I  c #433935",
"U  c #423D3C",
"Y  c #483D33",
"T  c #513F39",
"R  c #3E403F",
"E  c #5B4419",
"W  c #574616",
"Q  c #5B430B",
"!  c #624A1B",
"~  c #6A4B1A",
"^  c #664916",
"/  c #695317",
"(  c #735819",
")  c #6E4E12",
"_  c #4E4427",
"`  c #55412B",
"'  c #594627",
"]  c #44413E",
"[  c #4B433F",
"{  c #584A3C",
"}  c #644925",
"|  c #6B5729",
" . c #755727",
".. c #654D34",
"X. c #675336",
"o. c #775A37",
"O. c #784F21",
"+. c #7B632A",
"@. c #79623E",
"#. c #3B3741",
"$. c #363A41",
"%. c #3B3D43",
"&. c #3C3F49",
"*. c #433D42",
"=. c #453D49",
"-. c #493E42",
";. c #3D4144",
":. c #3D4149",
">. c #454343",
",. c #4A4544",
"<. c #4B4946",
"1. c #444549",
"2. c #4A454C",
"3. c #464C4E",
"4. c #4C4B4B",
"5. c #464847",
"6. c #534B45",
"7. c #534D4D",
"8. c #594C4B",
"9. c #564A47",
"0. c #54514F",
"q. c #5B524E",
"w. c #535341",
"e. c #4B4D52",
"r. c #494951",
"t. c #514553",
"y. c #534E53",
"u. c #574959",
"i. c #584A5A",
"p. c #5D4F56",
"a. c #4E5153",
"s. c #4E555A",
"d. c #545353",
"f. c #5A5554",
"g. c #5D5956",
"h. c #545659",
"j. c #5B5659",
"k. c #55595C",
"l. c #5C5B5B",
"z. c #555955",
"x. c #63534D",
"c. c #685948",
"v. c #615956",
"b. c #62565B",
"n. c #625D5C",
"m. c #6A5B58",
"M. c #705B4B",
"N. c #5D625E",
"B. c #65615E",
"V. c #69615E",
"C. c #766856",
"Z. c #756242",
"A. c #5B5D62",
"S. c #565962",
"D. c #635E61",
"F. c #6A5F60",
"G. c #5C6165",
"H. c #5A6169",
"J. c #656363",
"K. c #696563",
"L. c #64666A",
"P. c #65696D",
"I. c #6D6A6A",
"U. c #6B6867",
"Y. c #736868",
"T. c #666C72",
"R. c #696E73",
"E. c #6C6F78",
"W. c #6C7175",
"Q. c #6D7379",
"!. c #74797E",
"~. c #7A7B7D",
"^. c #747474",
"/. c #835C18",
"(. c #8D6B1F",
"). c #876419",
"_. c #956B1C",
"`. c #9A751B",
"'. c #A5781E",
"]. c #845D26",
"[. c #825C3C",
"{. c #866626",
"}. c #936A23",
"|. c #936C2B",
" X c #986927",
".X c #997427",
"XX c #866835",
"oX c #926932",
"OX c #9B7A3D",
"+X c #967436",
"@X c #8E7222",
"#X c #A27421",
"$X c #A67D23",
"%X c #A6772A",
"&X c #A06F31",
"*X c #A57830",
"=X c #B17E31",
"-X c #826946",
";X c #8C724E",
":X c #B7831E",
">X c #AD8235",
",X c #AA802B",
"<X c #AE8142",
"1X c #757C82",
"2X c #7A7D84",
"3X c #7D838A",
"4X c #7D8488",
"5X c #84888A",
"6X c #848B93",
"7X c #8C929A",
"8X c #8D9296",
"9X c #93999D",
"0X c #92969C",
"qX c #949BA2",
"wX c #949BA2",
"eX c #9CA4AC",
"rX c #99A1A7",
"tX c #9DA7B1",
"yX c #A2AAB4",
"uX c #ABB4BD",
"iX c #A7B0B9",
"pX c #ADB7C1",
"aX c #AEB8C2",
"sX c #B0BAC4",
/* pixels */
"V U *.4.g.g.g.g.g.g.4.] <.R A <.0.N B [ f.0.0.0.0.,.7.q.0.0.0.[ B B 6.<.] I [ ] <.z.n.g.g.v.g.g.,.3.",
"A A k 7.J.J.V.V.B.B.0.z [ I I 7.n.] ] <.g.<.z s s s z <.f.q.g.<.U B f.0.I ] <.z 5.B.J.K.V.K.B.f.M %.",
"3.7.7.n.n.B.B.B.n.B.n.0.z.<.] g.B.4.,.q.b.] = g z g a A n.d.N.f.[ ] g.f.] [ d.q.l.K.K.K.U.V.B.l.d.a.",
"3.7.b.n.n.g.B.B.b.B.B.B.B.B.J.n.B.B.l.N.4X7XwXqX9X5XP.d.4.,.g.B.v.g.g.g.f.B.K.B.B.J.K.V.B.n.n.J.l.4.",
"3.f.v.v.v.g.f.7.a.0.0.a.d.d.d.d.d.0.G.uXaXuXqX5X2X5X7XeXuXrXL.>.d.q.a.0.0.d.f.d.d.z.d.q.d.g.b.B.J.<.",
"3.x.V.n.g.,.k p p p p a p p p p p h yXpXaX3X2.2.t.2.=.=.k.2XQ.d a a 9 9 p 9 9 p a 9 9 a z [ f.n.J.s.",
";.g.K.B.<.p $ % & = y p p p a p p A pXpXiXt.u.u.i.i.u.i.i.t.V m = y 9 = < 9 9 < = < & $ O < ] n.J.d.",
"M v.K.n.k $ $ p n M Z Z A A %.A ;.G.pXpX7X2.i.u.i.i.i.i.i.u.i.V h A B M B A C B Z z g s = O g g.L.z.",
"1.g.V.q.a $ p g V R A >.2.4.4.e.2.5XiXpXT.u.u.i.u.u.u.u.u.u.u.=.c 5.<.>.<.6.<.>.,.>.U M g - < d.L.d.",
"3.g.B.q.a $ a v B >.U >.<.d.h.<.1.9XR.A.r.2.t.i.u.i.u.u.u.u.u.=.c d.f.7.7.7.y.7.2.2.5.U M = < 7.B.d.",
"3.g.B.z.a % s B B I ] <.,.7.5.l.1X3XG.!.3X7X6X=.u.u.u.u.u.u.u.=.M j.f.7.f.y.9.f.d.5.2.,.M < p f.B.<.",
"3.g.B.f.a & g B U 6.,.7.7.7.h.^.4XR.P.Q.7XyXsXt.i.u.u.u.u.u.t.#.N f.b.v.f.g.y.7.f.7.5.] z i 9 7.n.3.",
"5.f.B.z.0 = N ] ,.I U 9.7.7.d.^.Q.L.M s.A.6XwX=.i.u.u.u.u.u.u.b 5.n.v.n.g.q.q.f.0.7.7.5.N < < 7.g.d.",
"M g.K.f.a < N <.-.I 6.g.b.n.*.v S.1Xy $.b &.$.#.u.u.u.u.u.u.t.c v.n.n.m.v.v.v.f.f.7.8.U N 9 < 7.l.d.",
";.l.K.z.a = N <.U U x.K.J.B.f.,.2.uX6X1Xv v v u.u.u.u.u.u.u.#.U V.n.V.n.b.v.v.v.f.q.7.[ B 9 9 0.B.z.",
";.g.B.z.p 9 x 4.7.y.D.K.U.J.n.m.d.pXpXpX=.i.u.u.u.u.u.u.u.u.b C m.K.v.F.K.K.l.b.n.j.f.5.C i u d.K.s.",
"3.A.K.f.p p I 5.2.d.A.K.J.l.x.n.y.yXaXaX=.u.u.r.&.V b c c c f -.m.x.x.f.m.F.D.J.n.p.y.<.A p p d.K.3.",
"r.y.F.q.s p I 8.c.x.l.N.B.m.w.v.7.7XaXsXr.y.=.f c c C g F.m.c.m.Y.m.m.M.M.C.m.n.f.j.9.` t , , 9.N.4.",
"3.4.j.9.p $ j X.{.XXL 0 a L [.+X+XZ T.T.g M d #.#.t.*.k ;X;X;X{.x k I -XOX XXXe h M X.| E r , <.g.2.",
"A w.m.9.p . @ D ).`.).G > , ^ %X:X.XH , 0 ' H *.2.s.1.V 4 |.>X>XX.r 1 H |.%X}.^ 4 $ : } ^ 7 q <.J.d.",
"A q.B.9.a     o K _.'.oXH a 2 K ,X'.&X| j 1 Y e.3.a.s.k.I.] |.*X|.o.F w G  .].}.( > $ > H 7 1 6.J.z.",
"3.g.V.d.j w > # % W |./.^ t * & ! +X%X&X' = k.R.1Xs.3.Q.9XP.L {.=XOX .1 = 1 ' ]. X~ o   @ 4 w 8.K.s.",
"3.v.K.z.0 6 H 4 # 2 E /./.XXl , 1 ' +.).*X{ 1X3XS.S.T.T.a.W., t {.). X| : % w } {._.~ > . . & d.J.4.",
"3.f.N.z.0 6 D E w * 2 J  X}.].F 2 i t ( OX;X6XE.6X5XpX0X;.3.g n N ' &X%X~ : 9 l } /. X! @ . y y.N.5.",
"3.7.V.6.0 > K ^ ( S o o E @X(.) P q + _ ).5X3X1XeXW.8XQ.V 2X2X3XG.q .X,X`.^ , = 4 ( ).( S o & 7.^.d.",
"] ,.V.9.i . 6 K ( ) 7 o > D {..X).E , & 7 rX4X4XpXQ.%.n $.:.L ..a.a.q @X#X.X( 5 5 4 ) ( ^ 6 < 0.~.k.",
"Z ] b.6.1 . X S ) /.{.e 2 2 F {.@X+XF = 5 rXT.6XpXQ.&.&.&.:.` ,X..0Xn r  .%X%X( 5 * , ^ ^ 7 8 >.n.d.",
"1.z.n.f.8 . . > E _.$X{.7 & > } o.....` + 6Xk.tXpXS.&.&.&.V ! =X_.@.8Xg 6 {.`.'.( > < w J G 4 [ g.d.",
"3.g.L.g.q 5 + $ + } %X'.@X7 2 1 *.A z ' _ !.a.iXpXS.&.&.M j ' |.'.%X..s.G.a oX'. X^ 5 & % 6 4 9.B.a.",
"3.n.K.z.j r L : O + ^ '.`.oXG < 9 y f V n P.s.aXqX:.:.M t 8 x H }.:X+.8XuXH.4 (.'.`./ +   ; < y.K.5.",
"3.m.V.z.j w J ` x j N X.o.[.| 0 M f c %.%.:.Q.tXe.:.k.S.{ T Y L @.;XC.qXiXwXp { -Xo.Z._ q ; < a.K.a.",
"1.B.n.f.g 0 B <.4.f.b.b.p.x.6.s h.c d m A 4.e.3.e.e.h.c p.l.F.K.B.B.j.5X5Xh.4.K.V.g.z.a.] h 9 0.K.k.",
"M B.B.f.s y B 4.0.z.y.8.8.8.8.B K.K.,.n.K.B.K.Z P.qX6XZ >.R.I.J.D.J.J.a.e.k.l.J.J.k.d.3.R 9 9 d.L.z.",
";.B.B.f.s p A 3.d.l.g.d.g.f.f.7.g.U.l.J.B.K.U.J.k.Q.:.Z %.K.n.n.F.A.I.f.d.5.L.K.J.l.d.a.] p 9 d.K.z.",
"5.B.U.g.s y A <.d.l.l.g.n.n.n.n.U.I.U.n.B.B.B.l.R.:.$.m V l.D.l.n.j.D.p.y.n.K.J.B.l.j.4.A 9 9 f.K.s.",
"3.v.U.g.s < Z <.z.z.l.n.B.B.K.V.I.I.U.n.B.K.K.K.P.;.- f *.J.J.l.F.j.D.d.d.d.n.J.l.h.d.5.A a 9 d.K.4.",
"3.g.V.g.s = M 5.d.j.l.j.l.B.J.K.K.J.J.g.B.l.!.W.k.n # k n.U.J.n.l.D.J.B.D.l.l.J.g.d.a.2.A 9 9 0.J.3.",
"3.g.V.f.s = M 5.d.z.h.z.l.J.f.J.j.J.J.B.b.5.4.h.g.d.A.2.n.n.J.N.D.j.b.l.l.G.k.l.l.h.d.5.M 9 9 a.J.s.",
"Z B.K.f.p < M >.3.h.h.d.l.l.z.d.j.J.D.J.U.4.g.J.n.8.~.I f.n.D.j.k.n.J.G.g.g.h.f.g.d.4.1.M 9 9 7.L.d.",
"R l.U.f.s = n >.4.7.d.0.d.g.j.d.J.l.J.J.J.d.L.L.n.x.7.e.I <.y.h.l.4.h.d.h.l.g.d.4.4.<.U v < i 0.K.z.",
";.g.K.d.s & g R 5.4.4.0.4.z.h.j.j.d.d.j.d.J.L.J.n.f.9.7.j.J.A.2.h.f f # d.h.d.7.4.,.>.R z < p 7.B.z.",
"3.f.B.f.s & g R ;.,.<.<.M h.A.h.5.~.Q.9X3.G.L.K.D.f.2.6.f.g.l.h.0Xf m * e.<.4.y.4.4.4.R n & p y.J.4.",
"3.q.V.q.s = g R >.>.] ] 5.g - V d S.A.s.Z G.L.G.D.j.y.g.l.n.A.j.%.V m 4.0.4.4.<.a.a.5.R M = u 7.B.5.",
"3.0.n.0.a % g B R R U N z I >.g V $.$.h.c l.B.l.l.A.j.l.7.d.n.7.,.1.g >.0.0.7.<.4.<.>.Z n = u 0.B.4.",
"R 8.V.q.0 & g z U A C N l s U g.l.k.i # p j.l.h.h.h.d.0.[ U 8.U *.h.y A 7.>.] U ,.,.>.Z g = u 7.l.a.",
"Z q.V.q.s $ 9 g A ] U I I a N y.k.l.y.C %.f.d.0.d.d.4.6.,.U 7.U U k.* 7.7.5.U 5.5.>.M M g = i 7.B.d.",
"5.g.B.f.a % 9 z B N I I k 2 j U 7.h.h.f.h.7.0.4.0.d.0.7.7.[ ,.7.,.A.p 7.2.,.<.<.,.>.] z h = i y.J.z.",
"3.n.J.f.a % p M s k N z i l 2 L [ y.d.2.5.>.4.4.a.a.d.0.d.7.-.*.U N -.,.U U I B C Z B Z g = 9 d.U.a.",
"3.j.B.d.s = g N k M C M 9 l s l U 7.2.7.4.<.e.7.e.d.4.4.4.y.>.*.C -.C U >.>.>.I B R C M h < 9 d.G.5.",
"3.g g h < 9 9 a s p p p p a < 9 a g h h g g g g g g g g g g a p p k a a a s a g g s a a 9 = = h s A "
};
