/* XPM */
static char *result[] = {
/* columns rows colors chars-per-pixel */
"50 50 229 2 ",
"   c #0A0B03",
".  c #0E0D09",
"X  c #090806",
"o  c #130D0C",
"O  c #0F100C",
"+  c #1A1305",
"@  c #1E1906",
"#  c #15140C",
"$  c #1C130A",
"%  c #1E190D",
"&  c #131104",
"*  c #160E10",
"=  c #151312",
"-  c #1A1513",
";  c #1D1A14",
":  c #1D1B1B",
">  c #1A121A",
",  c #21160D",
"<  c #251C0C",
"1  c #291D0C",
"2  c #24170B",
"3  c #221514",
"4  c #241B14",
"5  c #2B1D13",
"6  c #211719",
"7  c #221E1D",
"8  c #2A1D1B",
"9  c #351F08",
"0  c #1F2215",
"q  c #2D230B",
"w  c #24240D",
"e  c #3C2D0C",
"r  c #34250D",
"t  c #2D2214",
"y  c #24211E",
"u  c #2B241B",
"i  c #272719",
"p  c #332414",
"a  c #3B2C13",
"s  c #3B2B1B",
"d  c #352A17",
"f  c #3D3119",
"g  c #38330D",
"h  c #1F1B20",
"j  c #231F21",
"k  c #291F22",
"l  c #252223",
"z  c #2A2624",
"x  c #2C2925",
"c  c #2C2A2A",
"v  c #272825",
"b  c #322C24",
"n  c #322D2B",
"m  c #372927",
"M  c #343224",
"N  c #34302F",
"B  c #3C3627",
"V  c #322F30",
"C  c #2F3030",
"Z  c #353332",
"A  c #3A3635",
"S  c #3C3936",
"D  c #353539",
"F  c #3B3739",
"G  c #3D3B3B",
"H  c #363838",
"J  c #2F322A",
"K  c #43330D",
"L  c #48360B",
"P  c #432C18",
"I  c #433213",
"U  c #4B3614",
"Y  c #4C341B",
"T  c #483B16",
"R  c #523F1B",
"E  c #503D10",
"W  c #543D0D",
"Q  c #4A3C21",
"!  c #43382B",
"~  c #523A23",
"^  c #423835",
"/  c #4A3D33",
"(  c #423D3C",
")  c #513E35",
"_  c #3E403F",
"`  c #5B4419",
"'  c #5B4B1D",
"]  c #554418",
"[  c #5B430B",
"{  c #624A1B",
"}  c #6A4B1A",
"|  c #664817",
" . c #695419",
".. c #71561C",
"X. c #755A15",
"o. c #6E4E12",
"O. c #4E4427",
"+. c #564323",
"@. c #594528",
"#. c #44413E",
"$. c #4B433F",
"%. c #544538",
"&. c #5A513E",
"*. c #694323",
"=. c #644923",
"-. c #664927",
";. c #6D5323",
":. c #69592D",
">. c #735424",
",. c #795A25",
"<. c #775729",
"1. c #695237",
"2. c #765937",
"3. c #744B2D",
"4. c #7C632C",
"5. c #7B633C",
"6. c #3B3F40",
"7. c #433F40",
"8. c #4A3F44",
"9. c #3D4143",
"0. c #454343",
"q. c #4A4544",
"w. c #464847",
"e. c #4B4946",
"r. c #424749",
"t. c #4A4749",
"y. c #464C4E",
"u. c #4D4B4B",
"i. c #524644",
"p. c #534A45",
"a. c #534D4D",
"s. c #594C4B",
"d. c #564A47",
"f. c #54514F",
"g. c #5B524E",
"h. c #595243",
"j. c #4D4E51",
"k. c #534F51",
"l. c #5D4F56",
"z. c #4E5151",
"x. c #545353",
"c. c #5A5554",
"v. c #565955",
"b. c #5D5956",
"n. c #555658",
"m. c #5C5658",
"M. c #565959",
"N. c #5C5B5B",
"B. c #63534D",
"V. c #64594B",
"C. c #695A49",
"Z. c #765C47",
"A. c #615656",
"S. c #615956",
"D. c #6C5D55",
"F. c #62565A",
"G. c #625D5C",
"H. c #6B5C5B",
"J. c #695758",
"K. c #705B55",
"L. c #5E615F",
"P. c #64615E",
"I. c #69615D",
"U. c #736357",
"Y. c #756242",
"T. c #5E5E61",
"R. c #635E61",
"E. c #6C5F62",
"W. c #5F6160",
"Q. c #656363",
"!. c #696564",
"~. c #6D6866",
"^. c #6B6369",
"/. c #6C6A6A",
"(. c #676668",
"). c #716D6C",
"_. c #766765",
"`. c #7D7978",
"'. c #835C18",
"]. c #8E6C1E",
"[. c #876419",
"{. c #946B1C",
"}. c #9D731C",
"|. c #95781B",
" X c #A47B1D",
".X c #A7761E",
"XX c #845D26",
"oX c #825C3C",
"OX c #8C6323",
"+X c #8F6D24",
"@X c #89692B",
"#X c #856627",
"$X c #926522",
"%X c #936B23",
"&X c #936C2B",
"*X c #9B6C2A",
"=X c #9A6D25",
"-X c #8E7222",
";X c #9C7524",
":X c #977327",
">X c #866736",
",X c #936A35",
"<X c #967436",
"1X c #9B7A3D",
"2X c #997536",
"3X c #A17522",
"4X c #A67D24",
"5X c #A4752A",
"6X c #A27B2D",
"7X c #A97D2A",
"8X c #A97727",
"9X c #B07C2E",
"0X c #A06F31",
"qX c #A27433",
"wX c #A87B30",
"eX c #B17F34",
"rX c #836645",
"tX c #937846",
"yX c #81704A",
"uX c #9C871A",
"iX c #AA821E",
"pX c #B7831E",
"aX c #9E8028",
"sX c #A8832A",
"dX c #B38426",
"fX c #AD8235",
"gX c #B78E33",
"hX c #9B8140",
"jX c #AE8142",
/* pixels */
"D G 0.u.b.b.b.b.b.b.a.#.q._ G e.f.S ^ $.c.f.f.f.a.q.a.f.f.g.f.0.S S p.p.#.( $.#.e.x.G.v.N.S.b.b.w.w.",
"H ( n a.Q.Q.I.I.P.G.f.N $.S ( a.S.#.#.e.N.e.Z x x b n e.c.g.b.e.( S g.f.G ( $.Z e.Q.I.~.I.Q.I.x.A 6.",
"y.a.k.G.G.P.P.P.G.Q.G.x.c.w.#.c.P.u.q.f.G.q.: Z S n z ( P.x.P.x.#.#.c.c.^ 0.c.v.N.!.~.~.~.!.Q.S.x.z.",
"y.a.F.G.G.S.G.P.S.Q.P.P.I.P.Q.P.Q.I.P.Q.G.q.6 Z ( N c #.b.m.b.P.G.b.S.b.b.I.I.P.L.Q.Q.I.P.S.G.Q.N.u.",
"y.g.G.S.S.m.c.a.j.f.f.z.k.x.x.x.x.x.v.x.k.0.V v c n c 0.f.w.u.x.x.x.f.a.a.f.c.x.f.v.x.f.g.b.G.G.!.y.",
"y.c.I.G.b.q.n z l l l l l l l v l c l l l : v v l l l l l l l l v l z y l y l l l l l l b q.c.G.R.z.",
"9.A.~.G.e.l = = : : h l l l l l l l l j : l l h l l j j l l l l y 7 l : 7 y 7 7 : : : - # 7 #.G.Q.n.",
"Z S.!.S.N = = l C D H F G 6.G 6.9.G H A H G F F F F G G H H G G G G S Z S G G S S N J x 7 = c m.(.n.",
"r.b.I.g.z o l c H 6.G 0.t.u.j.j.u.e.y.e.u.t.t.r.r.t.t.t.u.e.e.a.p.q.e.q.t.e.e.q.t.7.G Z c = 7 x.(.v.",
"y.b.P.g.z - l Z H 0.( 0.e.x.v.n.v.m.x.f.f.u.k.x.u.u.a.k.e.k.e.k.f.f.c.a.a.x.k.k.u.e.r.8.Z : j a.Q.z.",
"y.c.P.v.z - z A S ( 0.q.0.a.v.N.T.N.x.b.v.f.k.u.u.x.t.k.a.a.c.x.x.m.c.a.c.a.p.c.k.e.e.0.Z j j c.P.q.",
"y.b.I.c.z : c S ( i.q.s.f.a.m.N.W.G.b.b.g.x.b.b.m.F.m.G.G.b.S.c.c.m.S.S.m.c.k.a.c.k.i.0.V j l x.G.y.",
"r.b.P.v.i : A #.q./ ( d.p.x.b.!.(.Q.G.a.a.A.b.N.G.G.N.P.c.m.G.A.G.G.S.S.b.c.g.c.k.a.a.q.A 7 7 a.b.x.",
"H b.!.c.z 7 S e.( ^ i.c.S.G.m.G.G.u.c.p.S.g.G.P.Q.N.G.v.g.S.G.S.F.G.I.G.S.S.m.m.c.p.e.8.Z l 7 p.b.v.",
"_ v.(.c.z 7 A e.8.0.c.~.Q.R.S.S.G.c.F.d.s.$.c.b.b.(.S.g.c.c.S.H.I.I.I.H.S.S.S.S.c.c.a.q.S 8 y f.P.M.",
"9.b.P.v.l y B w.e.k.F.~.~.Q.F.H.S.L.P.P.S.b.c.P.(.~.P.e.B.B.g.B.G.I.S.E.!.Q.b.S.S.F.x.t.G k j z.(.z.",
"y.F.Q.c.z 7 ^ e.t.x.T.(.R.b.b.F.!.R.T.T.P.P.b.N./.(.I.s.S.c.l.A.J.l.B.B.G.E.R.G.G.l.g.t.H z j x.Q.y.",
"y.n.R.g.x l G d.B.B.m.L.P.D.&.S.E.E.G.c.h.g.U.)./.^.Q.I._.D.C.D._.E.K.C.Z.U.H.G.b.m.d.O.f t 8 p.P.w.",
"y.a.m.d.z # N 1.OX>XQ v v ! oX<X<X:.u b ! hXfXtXY.B J _ yXtXtX4.B n / Y.1X&X>Xs v H 1.;.` d 4 q.b.y.",
"H h.H.i.l X & L [.}.[.I % 5 | 8XpX6X' 8 i +.<X8X1X{ i i ` qXeXfX:.d z Y &X4X$X| 1 = < -.| e u u.P.v.",
"H g.I.f.z o . + ] {.}.&X~ z 2 W sX8X5X-.b z ] <X.X;X=.f t ~ ,XwX:X2.s t P <.OXXX..< # @ U e t d.Q.v.",
"y.F.I.g.b p 2 * # ` *X'.| s : - ' 0X8X2X@.i x Y :XdXgX,.5 u Q @X5XjX<.t : u @.XX*X} 2 o # q t g.Q.v.",
"y.b.Q.v.u r U 1 = 3 ` '.'.>Xs 7 5 ~ #X[.tX2.s.y @.<XiXgX..! u P #XOX&X;.1 - p -.#X$X} 2     7 k.(.u.",
"y.c.L.v.u r L { p > > ` &X%XXXP 8 8 f >.5XqX>Xi : T -X7X5X{ 5 : d o.5X5X} < z b { '.$X=.+   : k.P.r.",
"y.a.I.d.z 1 U [ X.I + @ ] %X].o.Q u % +.%XdX5XR 6 , Q @X;X:X` 4 4 e &X4X}.| 5 ; r X.[.X.K & ; a./.v.",
"9.q.I.d.8 X r [ X.o.e + @ U #X;X[.` ; - I %X5X$X' 4 ; Y <.{.OX{ 4 $ g -X3X;X..w ; q  .X.| r 7 f.`.M.",
"S 0.S.i.8 X * L o.'.#Xs 3 3 P #X-X<XP : @ K @X}.aXE b m ) *.*X9X-.6 ; s ,.5XwX..w > 5 [ o.a 8 $.G.n.",
"r.v.G.c.u   X , R }.4XOXI % , =.2.1.:.%.< ; @.@X7XOX3.m / %.<.9X{...8 4 e %X}. X..2 7 p R I q $.N.z.",
"y.b.(.b.i w @ = 3 =.8X X].a 6 8 8.%.-.1X' ; : I 4X.X5X*.p b +.&X.X7X;., % f &X.X=X| q > - q q p.Q.z.",
"y.G.Q.v.b a Q < # @ { }.}.&XI i z / *.7XuX+.h 0 ] sXdXiX[ i B Y &XiXsX{ % 4 e ]. X|. .@ . . k k.(.w.",
"y.H.I.v.b p ~ %.M M B C.2.oX1.t e.A.K.2.,XtX%.S ^ Z.<X,XZ.%./ ! 2.tX>X>Xa.D A %.rX2.Y.O.i = : f.Q.x.",
"r.G.P.c.c i S $.u.m.m.F.s.B.p.x P.Q.Q.H.I._.).).!.G.I.I.E.F.R.!.I.G.I.~./.Q.(.~.Q.S.v.z.#.v l f.(.M.",
"Z P.P.c.z y H y.x.b.x.s.d.s.g.S (./.).).!.I./././.G.(.!.).)./.Q.Q.!.R././.Q.^.Q.P.N.x.u.6.l y x.(.n.",
"9.P.I.c.v l G t.x.N.b.k.m.c.c.a.b.!.G.P.G.~.~./.Q.G.G././.(.T.G.R.R./.N.x.N.(.(.W.N.v.z.G l y c.(.n.",
"y.G.~.b.x y G t.x.N.N.m.G.G.G.G.~./.~.G.P.I.P.N.m.F.~.).!.N.F.N.F.m.R.c.k.G.!.Q.W.N.N.y.G l y x.Q.v.",
"y.G.!.b.v y H t.v.v.N.G.Q.G.!.I./././.G.P.!.~.Q.A.a.H.Q.G.(.(.N.!.n.R.c.k.x.R.Q.N.v.x.w.G l u x.(.w.",
"y.b.I.b.v : Z w.x.m.N.n.N.P.Q.!.(.P.Q.S.P.!.^.(.S.a.a.S.Q.~.!.T.F.R.(.G.R.N.N.T.m.x.j.u.G y 7 x.(.j.",
"y.b.P.m.v : N w.x.v.n.v.N.Q.v.Q.N.Q.Q.P.I.R.R.(.H.s.p.g.G.G.Q.N.R.m.N.N.N.T.N.N.N.v.x.t.Z y y a.Q.z.",
"H S.~.c.z 7 Z r.j.x.v.x.N.b.m.f.m.R.G.Q.G.G.T.T.G.s.d.a.m.G.G.v.N.N.(.T.N.v.v.m.N.x.u.r.Z 7 y a.Q.M.",
"G L.~.c.x : V 0.w.j.x.x.x.v.m.v.Q.G.Q.R.T.(.(.(.G.c.d.i.s.S.m.N.N.N.W.W.M.N.m.x.u.t.t.7.V j j x.Q.M.",
"9.b.I.c.z : c _ w.u.j.f.u.x.N.v.n.x.v.T.Q.(.(.W.S.m.p.s.m.F.m.T.M.N.W.N.v.v.c.k.u.w.w.G N j l a.Q.v.",
"y.c.P.x.z : c G 0.r.q.e.z.c.N.N.x.v.N.Q.W.Q.W.(.R.l.u.q.m.m.N.N.x.v.N.v.k.t.u.j.u.u.u._ C : j a.Q.u.",
"y.g.P.c.x : c ( 0.w.7.#.q.a.a.v.M.N.T.W.W.(.(.W.T.N.x.m.b.N.N.n.k.m.v.x.k.j.e.u.k.z.w.9.Z : l k.P.e.",
"y.f.G.g.z - v G G ( ( A N ^ e.N.T.T.T.T.W.W.W.T.T.N.N.S.a.x.G.k.q.x.u.u.f.u.a.e.u.t.0.H C : j a.G.u.",
"6.s.I.c.y ; c Z ( G G S n b ^ N.N.T.T.n.N.m.N.v.v.n.x.a.0.( c.( q.u.p.u.u.q.0.( r.0.0.H C h j u.N.z.",
"H g.I.g.x = i n G 7.( ^ ^ z A x.N.N.n.T.N.x.x.x.k.x.a.e.e.^ i.( ( p.e.j.a.t.( w.q.0.D Z c : j s.G.x.",
"w.m.G.c.z = y N S A ^ ^ N 3 x ( a.n.m.x.x.k.k.u.z.x.x.a.p.8.q.k.8.( e.s.i.0.t.e.q.0.( Z v : j x.(.v.",
"y.G.Q.m.z - z N c n A n 8 b 8 ! 0.k.x.t.r.0.u.u.f.x.x.z.k.k.8.7.( 8.e.t.( ( F G ^ H G A c 7 j x.(.z.",
"y.b.Q.c.z : n Z N Z A Z y m b m ( u.t.j.j.u.k.k.j.j.k.j.u.k.8.7.F 8.G ( 8.0.0.^ G ( G H z : l f.W.w.",
"y.c c l : y l z v l l z j z 7 y z c v c v c c c c c c v c v z z y c z x l c c x x v l v y : 7 v c G "
};
