/* XPM */
static char *result[] = {
/* columns rows colors chars-per-pixel */
"50 50 212 2 ",
"   c #0B0A06",
".  c #130D0C",
"X  c #1A1305",
"o  c #15140C",
"O  c #1E190C",
"+  c #1A1407",
"@  c #180C15",
"#  c #151312",
"$  c #1A1513",
"%  c #1C1A14",
"&  c #19131A",
"*  c #1D1B1B",
"=  c #0F100C",
"-  c #251C0C",
";  c #25190C",
":  c #221514",
">  c #241B14",
",  c #2B1C13",
"<  c #231E1D",
"1  c #2B1D1B",
"2  c #201718",
"3  c #351F08",
"4  c #2D230B",
"5  c #24240D",
"6  c #3C2D0C",
"7  c #34250D",
"8  c #2D2113",
"9  c #24211E",
"0  c #2B231B",
"q  c #282618",
"w  c #332414",
"e  c #3B2B1A",
"r  c #382A15",
"t  c #3D311A",
"y  c #38330D",
"u  c #1E1B21",
"i  c #231F21",
"p  c #261B21",
"a  c #1F2125",
"s  c #252323",
"d  c #2A2624",
"f  c #2B2925",
"g  c #26262A",
"h  c #2A262B",
"j  c #27282C",
"k  c #2C2A2A",
"l  c #272825",
"z  c #322D24",
"x  c #322D2B",
"c  c #362B26",
"v  c #353123",
"b  c #35312D",
"n  c #3B3729",
"m  c #2C2D32",
"M  c #332F32",
"N  c #2E3134",
"B  c #2E3239",
"V  c #343333",
"C  c #3A3635",
"Z  c #3D3936",
"A  c #33343B",
"S  c #3C353D",
"D  c #35393D",
"F  c #3C3B3B",
"G  c #45340C",
"H  c #432C16",
"J  c #493316",
"K  c #533F1A",
"L  c #543D0D",
"P  c #483927",
"I  c #523C23",
"U  c #433834",
"Y  c #423D3C",
"T  c #3E403F",
"R  c #5B4419",
"E  c #584718",
"W  c #5B430B",
"Q  c #624A1B",
"!  c #6A4B1A",
"~  c #664817",
"^  c #6A5318",
"/  c #71561C",
"(  c #755A15",
")  c #6E4E12",
"_  c #4E452B",
"`  c #584627",
"'  c #44413E",
"]  c #4B433F",
"[  c #574838",
"{  c #5A513E",
"}  c #654923",
"|  c #654727",
" . c #6C5327",
".. c #765728",
"X. c #675539",
"o. c #775837",
"O. c #784F21",
"+. c #796339",
"@. c #7F6528",
"#. c #363A41",
"$. c #3B3C43",
"%. c #3C3F49",
"&. c #433E42",
"*. c #433D49",
"=. c #493F4E",
"-. c #3D4143",
";. c #3D414A",
":. c #454344",
">. c #4A4544",
",. c #4B4946",
"<. c #43454A",
"1. c #4B454C",
"2. c #454C4E",
"3. c #4C4B4B",
"4. c #464847",
"5. c #534B45",
"6. c #524D4C",
"7. c #594C4B",
"8. c #564A47",
"9. c #54514E",
"0. c #5B524E",
"q. c #595747",
"w. c #4A4D52",
"e. c #494852",
"r. c #524554",
"t. c #534D53",
"y. c #574959",
"u. c #584A5A",
"i. c #5D4F56",
"p. c #4E5153",
"a. c #4E5458",
"s. c #545353",
"d. c #5A5554",
"f. c #5D5956",
"g. c #545659",
"h. c #5B5658",
"j. c #55595B",
"k. c #5C5B5B",
"l. c #555955",
"z. c #685847",
"x. c #615A56",
"c. c #625D5C",
"v. c #6A5C5A",
"b. c #655957",
"n. c #705B50",
"m. c #5E615F",
"M. c #64615E",
"N. c #69615E",
"B. c #75624A",
"V. c #565C61",
"C. c #5B5D61",
"Z. c #625E61",
"A. c #6D5F64",
"S. c #5D6164",
"D. c #5C6169",
"F. c #656362",
"G. c #696563",
"H. c #62666A",
"J. c #646A6E",
"K. c #6C6A6A",
"L. c #6A6668",
"P. c #716D6D",
"I. c #676D73",
"U. c #6A7175",
"Y. c #6D747A",
"T. c #717475",
"R. c #74767C",
"E. c #74797D",
"W. c #7C797A",
"Q. c #835C18",
"!. c #89661B",
"~. c #956B1C",
"^. c #99761B",
"/. c #A5781E",
"(. c #845D26",
"). c #8F6E25",
"_. c #866626",
"`. c #936A23",
"'. c #936C2B",
"]. c #9B6C2A",
"[. c #956724",
"{. c #9A7326",
"}. c #886836",
"|. c #977539",
" X c #906C29",
".X c #A17321",
"XX c #A67828",
"oX c #A47831",
"OX c #B07C2E",
"+X c #836645",
"@X c #857D6C",
"#X c #B7831E",
"$X c #A8812A",
"%X c #AE8130",
"&X c #AE8142",
"*X c #757C83",
"=X c #797D83",
"-X c #7B8186",
";X c #7D848A",
":X c #82878D",
">X c #868B92",
",X c #888F97",
"<X c #8C9299",
"1X c #91979C",
"2X c #949CA3",
"3X c #9CA3AB",
"4X c #9BA0A3",
"5X c #9FABB1",
"6X c #A2ABB3",
"7X c #ACB4BC",
"8X c #ADB7C2",
"9X c #AEB8C2",
/* pixels */
"A F :.3.h.f.f.f.f.f.6.T ,.F Z >.9.Z U :.d.s.9.9.6.>.6.s.9.0.9.] Z Z 6.,.Y ' ' ' ,.l.k.f.f.f.x.d.:.4.",
"F Y x 6.M.G.N.M.M.M.6.n ' Y Y 6.c.' ' ,.x.>.b f f z x >.f.9.f.,.Y U 0.9.U Y :.b ,.G.G.G.G.N.M.d.S -.",
"<.6.t.c.c.c.M.M.c.F.k.s.l.>.Y f.M.6.>.9.c.>.* V Z x f Y M.s.c.d.' Y l.d.' ' 0.0.m.G.G.G.L.G.c.c.s.p.",
"2.9.x.c.c.x.M.M.x.F.c.M.N.F.G.c.c.M.M.F.c.>.* V Y M k Y f.h.h.M.c.f.x.f.f.M.G.N.m.F.L.N.F.x.c.F.h.3.",
"w.7.x.x.x.f.d.6.9.9.9.s.t.s.s.s.d.s.s.s.6.F F s.I.=X=X;X:X=Xk.9.s.s.6.6.6.s.d.s.9.0.d.9.d.f.x.F.F.4.",
"2.x.N.c.f.>.x d s a s s s s s l l k l m D.>X6X8X6X3X6X8X9X9X7XC.l l d 9 d 9 s s 9 l 9 l x ] d.c.F.a.",
"-.f.G.M.,.s # # * * * s l s l s s s s *X3XR.C.1.1.r.1.1.-X7X9X7XF < 9 * < < s * * * * # o < :.c.H.s.",
"V x.G.c.x # # s N V C D F F F $.F F A m S y.y.y.y.y.y.y.1.5X9X9XH.F Z V Z F Z Z C V k f * o f f.G.l.",
":.f.M.d.d . s k A T T Y ,.w.3.w.w.$.M =.y.y.y.y.y.y.y.y.r.*X8X8X,X>.,.>.,.,.>.>.:.:.$.V k # i s.H.s.",
"2.f.M.0.d $ l M C :.:.:.,.s.s.k.s.S S y.y.u.y.y.y.y.u.u.u.C.8X8X2X6.d.6.6.t.6.t.,.1.>.&.V * < 6.F.s.",
"2.f.M.0.d $ f C U Y ' >.>.3.s.k.c.$.S y.y.y.y.y.y.y.y.u.r.&.*XJ.2Xs.,.6.d.t.6.d.s.,.,.>.C i i s.M.4.",
"2.f.N.l.d * k Z Y >.>.7.9.6.h.c.M.4.S y.y.y.y.y.y.y.=.C.=XU.2Xg.U.=XI.C.f.d.7.6.d.6.,.Y V i 9 s.c.3.",
"4.l.N.0.l % C ' >.U U 8.6.s.h.G.G.d.A y.y.y.y.y.y.y.*.6X9X;X2XZ.V.,XT.h.x.d.0.d.t.6.6.>.C < < 6.f.s.",
"C h.G.l.l < Z ,.&.U 8.f.k.x.h.c.Z.4.m y.y.y.y.y.y.y.*.3X6XI.*Xg s.:XT.k.x.x.h.d.d.6.8.' C 9 < 8.k.s.",
"-.f.G.l.d < C >.>.] d.L.F.M.x.b.c.f.Z *.y.y.y.y.y.y.r.#.;.A #.u <.R.&.&.b.x.x.x.d.0.6.>.S 9 9 6.M.l.",
"-.h.M.l.s 9 n 4.,.t.b.G.L.F.c.b.x.f.6.A u.y.y.y.y.y.u.M j j %.*X6XR.1.b.L.Z.k.x.c.h.d.4.U s i p.G.a.",
"2.c.G.d.f i Y >.<.s.Z.G.Z.h.i.b.L.Z.h.g r.y.u.y.y.u.y.u.y.y.I.8X8XR.z.7.v.L.F.c.c.d.i.>.U 0 s 9.F.3.",
"2.u.Z.0.f < Y 8.z.z.h.m.M.x.{ f.A.A.h.u $.$.$.%.*.=.r.u.u.y.Y.8X8XI.v.n.n.n.v.c.l.h.8._ n > < 5.m.2.",
"2.3.x.8.0 # v X._.}.P l l P }.|.|.X.0 k t +.[ s g j m #.y.=.*X9X9X4.U +XoX'.}.e l V X. .~ w 5 >.h.3.",
"F 5.v.1.i   + G !.~.Q.J O , ~ XX#X$XE 0 0 E |.b y.#.#.m j j V.*Xj.f 0 J '.XX`.! 3 # - } ! 6 9 ,.M.l.",
"F q.N.7.d .   X E ~.^.'.P c ; L XX/.]. .c f b h.w.r.1.j p P o...o.o.r 0 H ..[.(.O.- o ; J 6 w 1.M.a.",
"2.f.N.s.z w : . o R ].Q.! H & $ ` oXXX{.` k.V.a.g.$.e._ , 0 P  XoXOX..8 * 1 ` _.[.^ X = + 4 8 0.H.l.",
"2.x.F.l.0 3 L - # : R (.( }.H < , ` @.!.B.6X3XF.w.Y.S.T.z.P 0 r _._.[. .- O w | @.`.! ;     % s.G.3.",
"2.f.m.l.d 7 G ~ w & : K '.`.(.H 1 1 t  .4.2X;X2XE.D.*X=X+.Q , % r / {.oX! - 9 c } Q.[.Q X   u t.m.4.",
"2.6.N.8.s - J ~ ( G X X E ).~.! I 9 - n #.D ;X7XE.J.I.>X&X$X_ * > 6 '.$X^.~ 4 * 7 ( !.( G X % 6.P.l.",
"T >.N.8.1   7 W ( ) 6 + ; J _.).!.E l a ;.#.J.,X<.-X;X;X;X+.).R : O y )..X~. .- % 4 ^ ( R 7 < 9.W.j.",
"C :.x.8.1   X G ) Q._.e > > H _.!.n j l ;.#.#.j D.4X1XU.3X` ].%X} 2 2 t (.XXoX^ 5 & , W ^ H , ' M.s.",
"<.s.Z.0.0     X R ~.XX).6 O ; } [ N U n ;.;.;.-.A <X,XD.2X[ O.OX~./ 1 2 6 )./././ ; < w J G w ] f.s.",
"2.f.L.h.q 5 O . : Q XX.X).y 2 p Z m | }.V -.-.;.$.I.;XV.2Xn ` './.|.X.> O t './.].W 5 $ $ 3 4 5.F.p.",
"2.c.G.l.z r K > o O ! ^.^.'.t g j U } $X$XU ;.;.V.J.H.Y.1X6.c P @X=XD.q.f > 6 !./.$X^ O = = i w.F.4.",
"2.v.N.l.z w I _ v k b z.o.o.F %.A d.n.o.}.z.B %.w.-X<.m j.:XW.f.3X3XU.%.>.A C [ +Xo.+._ q # * 9.G.l.",
":.M.M.d.h 9 Z ,.8.d.h.b.i.U B $.m s.G.v.N.s.V.a.#.Y.7XD.3.3.1.H.7X7XD.H.G.G.F.K.N.f.l.p.' l 9 s.G.a.",
"V M.M.0.f 9 F 3.s.l.s.6.6.M i m g h.P.K.G.,.#.2.V.2.I.H.k.P.H.F <.a.B S.K.F.H.F.F.k.a.3.T l < s.G.j.",
"-.M.N.l.l 9 F 4.s.k.h.0.x.8.m m V k.c.M.k.V a.<X*X#.%.k.K.G.k.k.h.h.F.c.d.k.G.G.F.j.s.9.T 9 9 s.G.j.",
"4.c.K.h.k 9 F 4.s.k.k.f.Z.c.d.3.G.K.L.c.9.D -.e.C.k.G.P.G.Z.C.c.h.h.c.d.t.c.G.F.m.k.h.w.F 9 0 s.F.a.",
"2.M.G.f.l * Z 3.s.j.k.c.c.c.G.F.K.K.P.c.6.m D g.*Xk.b.G.c.F.G.k.G.h.Z.d.s.s.C.M.k.l.s.4.Z d 9 s.G.3.",
"2.f.N.h.l * V 4.s.h.k.k.k.M.G.G.G.F.F.x.h.j & u $.6.7.x.G.L.F.k.c.Z.G.Z.Z.k.k.F.k.s.s.1.F 9 9 s.F.w.",
"2.f.N.h.l * V 4.s.s.j.s.k.F.s.F.k.F.F.c.F.:.j u $.W.6.0.x.c.F.M.Z.h.k.k.k.S.k.k.k.s.p.4.C < 9 3.F.a.",
"C M.G.d.l < V :.p.s.s.s.k.k.s.s.h.F.Z.M.k.s.S.T.8.w.R.6.f.c.Z.g.h.C.F.c.h.l.s.h.h.s.3.:.V 9 s 6.F.l.",
"T m.G.d.f 2 V -.3.3.s.s.s.s.2 j 3.c.F.F.Z.k.I.H.c.t.,.9.6.b.d.h.k.k.F.C.k.k.h.s.9.3.4.&.M i < s.F.j.",
"-.f.F.d.g % x F 4.3.s.3.3.4.@ e.D 4.s.k.G.a.R.M.c.d.>.Z.d.c.h.C.h.k.G.s.j.s.s.t.4.:.:.T b a 9 6.M.l.",
"2.d.c.d.l % k T :.4.>.,.9.s.m D.Y.S.s.H.s.<.H.H.Z.d.6.4.L.h.k.h.s.C.V.A s.3.3.3.3.3.3.T x * s 9.F.3.",
"2.0.M.0.f * k T :.:.:.' ,.3.1.Y.Y.k.k.C.H.k.H.M.Z.h.t.d.d.Z.g.<.h.a.u :.9.3.3.6.s.9.<.T N * s 6.M.,.",
"2.0.c.0.d $ f F F T F C b s k *XP.C.S.C.F.m.S.m.k.C.k.x.,.H.;Xs S g F 3.s.3.3.,.3.1.-.T N * < t.c.2.",
"-.6.M.d.d $ f b Y F F C c g a.s.k.V.C.k.k.k.k.s.g.h.s.6.' V a A C ,.,.,.3.:.:.Y :.:.-.F b * i 3.c.9.",
"C 0.N.0.d # 9 b F Y &.U x M V.s.k.k.k.k.j.d.s.9.s.s.6.,.8.Z j & k 3.,.s.6.>.Y >.1.:.C V k * p 6.c.a.",
"4.f.c.d.l # i n Z C U U h C.Y Y 6.h.g.h.s.t.s.3.p.s.s.6.7.] Y M >.Y 1.6.,.>.>.>.:.:.F V f * s s.G.j.",
"2.c.G.d.f $ s b k x C b i 8., U ' t.s.4.4.:.3.3.9.s.s.3.t.6.&.&.Y &.>.8.Y Y Y Z F Z F C k < < s.G.w.",
"2.h.G.s.d * k C x V C x s c d c Y 6.1.,.w.,.t.6.p.p.9.3.,.t.&.&.U &.S Y Y :.&.Y S Y F V l * l 9.F.:.",
"2.k k l < < 9 d f l g s < f < s f k f h k k k k k k k j k k f l s x f f f k f f f f l l 9 * * l k F "
};
