/* XPM */
static char *result[] = {
/* columns rows colors chars-per-pixel */
"50 50 94 2 ",
"   c #170414",
".  c #110B13",
"X  c #180C18",
"o  c #19121B",
"O  c #1A191E",
"+  c #1E1E21",
"@  c #201722",
"#  c #201E23",
"$  c #1F2123",
"%  c #222327",
"&  c #242529",
"*  c #272A2C",
"=  c #2A2C2E",
"-  c #32312F",
";  c #2B2D32",
":  c #322E34",
">  c #2D3134",
",  c #2F3239",
"<  c #343434",
"1  c #3A3336",
"2  c #363837",
"3  c #34353A",
"4  c #3A3639",
"5  c #363A3B",
"6  c #3B3B3D",
"7  c #403B3E",
"8  c #393741",
"9  c #353C41",
"0  c #3C3E41",
"q  c #3C3F49",
"w  c #413D42",
"e  c #473E48",
"r  c #483F4A",
"t  c #3D4344",
"y  c #3F4648",
"u  c #414345",
"i  c #424749",
"p  c #4A424D",
"a  c #454C4D",
"s  c #484A4E",
"d  c #4F4351",
"f  c #474D51",
"g  c #4A4E52",
"h  c #544755",
"j  c #544956",
"k  c #574959",
"l  c #584A5A",
"z  c #465152",
"x  c #4B5255",
"c  c #4D5559",
"v  c #4E595C",
"b  c #51555B",
"n  c #58575E",
"m  c #535A5D",
"M  c #5C5C5F",
"N  c #555C62",
"B  c #5A5E63",
"V  c #536063",
"C  c #5D6265",
"Z  c #5F656A",
"A  c #616364",
"S  c #63666C",
"D  c #66696C",
"F  c #686D6F",
"G  c #666A70",
"H  c #686E73",
"J  c #6C7175",
"K  c #6E7479",
"L  c #70757B",
"P  c #73797F",
"I  c #757B82",
"U  c #797E85",
"Y  c #7A8186",
"T  c #7C838A",
"R  c #7F888E",
"E  c #81878D",
"W  c #83898E",
"Q  c #858C94",
"!  c #898E92",
"~  c #8B9296",
"^  c #8B939A",
"/  c #8F989F",
"(  c #93979C",
")  c #949CA2",
"_  c #989FA6",
"`  c #969FA8",
"'  c #97A0A6",
"]  c #9CA4AB",
"[  c #A1A5A8",
"{  c #A4ACB5",
"}  c #A6AEB8",
"|  c #ABB3BD",
" . c #ADB7C1",
".. c #AEB9C2",
/* pixels */
"2 6 i i i i 5 6 u t y i t 2 7 i i y i 2 6 i i i i 5 4 i i i i 0 2 u t t i y 2 6 i i i i 2 6 i i i i ",
"6 g u a a a < x 6 u a a 6 z i i a y y 6 a u a a a < v u a a a 0 z u 0 a a i i a u a y i < c w a a a ",
"i 6 6 a z y i < 6 u a a a t 6 6 y u i t 2 < t 0 t y 2 5 i a a y 2 6 6 a a a u 6 2 y y y y 2 2 i a a ",
"f a i a i 6 i a i a z 2 i z u t a 6 2 V ( ] ] [ ] ( W C 5 5 2 y a u a a 7 y a i t a t 6 a a i i a 2 ",
"f f a a i 0 u a a i 7 m 6 f a a u a P | | .._ P I U ^ } | ) b < z a a u c 2 a z a u f 6 i z f i 6 x ",
"a a i 2 t u f a a t u 2 i f a i 6 u | ..| P p h j j p p b S b > a a i 6 2 i a a f 2 6 i a a a 5 u 6 ",
"u u i t t a i w z i 6 y i y a i 2 v | | | u k l l l k l k k : 3 - z a t t i y a a 0 2 a i 6 i t 6 a ",
"6 f 0 i a a 2 c 6 i y a 6 x u a y K | ..L j l l k l k k k k k : 6 7 t i i i u a i i y a - v 2 i a a ",
"u 6 6 t a a a 2 a 6 i z a 2 a 2 t !  ...N l k k k k k k k k k w & v 2 y a a 6 t 6 u a a i 2 u i f a ",
"a 6 t a i u a a u t u u a f 2 2 2 ^ L G 8 q d l k l k k k k h e > y t y u y a t u a i u a u 6 a f u ",
"f a a a u t u i y i 6 v 2 f t M U I C U L ] Q p k k k k k k k w > y t w c 2 a z a a a 6 i a a a 6 x ",
"a f f 2 i t y i a 7 a < i a x D T G A U I  . .p k k k k k k k 1 6 a u i 6 i a a a 6 u u a a a 6 x 2 ",
"i i a t 2 a i i a i 2 a i u f A K S # j p U ^ r k k k k k k k ; 2 a a 6 u u i i a 6 2 a i i i t < a ",
"6 s u a a f 2 z u z a y 6 a < 2 N J O 9 8 q 8 r k k k k k k e & a w a a u u t s a u a a < a u a a a ",
"t u u a f a u t i u u a i 6 a - i | ^ I , 8 8 l k k k k l l : : 6 z 6 y y a t i 6 i a a u t i t a z ",
"u 6 2 a a a y u < t i i a a < 6 9  . .{ r l k l l r k k k k ; ; i - t a i a a 2 5 y a a a u - i f i ",
"a a a z i 6 t a i i i u 6 u i i 9 }  .| r l k p 9 3 ; & ; & % < a i i i i 2 i i y a i 2 i i i a i u ",
"a z a 6 a 6 2 y a u i t 6 a i a < ~ ....u j 8 ; , : 1 * 0 i 6 3 t i i i i 2 a i a 6 i t a i z t s u ",
"z a z 6 - t t i a t - 6 z a a i < = N g O % & 8 8 k 3 6 0 > t t i z i < 2 i a a a 2 6 i a a i 2 - u ",
"6 u y 6 t i 6 7 a a i a y y i u a i 9 ; 6 y $ w d g q < * 5 y t 7 i a a a a y i u a a a t 6 y t t u ",
"6 a u u a z 6 a u i a z u i a u f i i 5 a 2 a b i C c c D t a t a i u a a a t a u a a y - z t 6 y a ",
"i 6 2 a a a i t u u a u a t 2 t i y y t 2 < Z H U a b I { C a i 6 a 6 z i a u 6 6 a u u y 2 6 u a a ",
"z i i a t 6 i a u u t 6 i a u a a 0 i a 0 6 T W S B I I a C > y z i u i 6 t a a i a u i a t t a a 7 ",
"a a a t i t t a y t 6 v 6 a a a w c < i i C Q N T ( } Q 6 f * i i 6 u 2 c 1 a z a i s 6 y y a i 7 z ",
"f a a 7 t u a a a 6 y 2 f a a i 6 5 a y f R T Q ] J Q B 8 H J E M < t 6 2 a a a z 2 6 i i z a 6 u 6 ",
"u u a i u a i 7 a u t i i 6 a a i i f t 5 ] H ^ ..S 9 , q y 3 a D s > t a a 6 i a y i a y 7 a a t z ",
"2 s i a a z < v 2 i f a t c w a a y a 5 t ] B '  .B q q q t 8 6 x [ 5 i a i y i i z y a - v 7 a a a ",
"u t 6 a a i t 2 u u a a a 2 i 6 i y t t 3 / c {  .x q q q 5 i i < m ~ 2 2 i t t 2 i y y u 6 u i a i ",
"a u u a i 6 i i t i z 7 a a 6 t y 5 > = > R x | ..f q q 9 a 8 y a 6 u m J > a t t i u t i i t i a t ",
"z a z a i t u a f f 7 v 5 a a a > O ; 3 ; H N ..^ q t ; t 6 z 6 a f t ] | v t a i i a 6 i a a i 7 z ",
"a a a 1 i t a z a 0 a < a a a i & ; > q 9 0 I Q 9 c Z i < s 2 a a s J ' { Y - a a 2 u t a z i 7 a 2 ",
"i i u t 2 a a u a y < a y y a a , $ $ ; ; 3 y p g y b ; 5 < a a i a s ~ Y x u a a 6 2 a i i i t - a ",
"6 a t u a z 2 x w a i i t z u a t t 5 2 t t t = I Q K > 5 a a t a 7 a a b a t a i i t a < g 6 i f a ",
"t u 6 t a z u 2 i 6 i z i 2 x 2 i a a 6 i 6 a i N T 9 3 ; a f i 5 x 2 t a 6 6 a 6 t a s u 5 i i a a ",
"i 2 2 a a i a i u u t i a i 1 t a a a a < 6 a i B i 3 > > a i a a a 0 i i a a 2 6 a a a a 6 < a a a ",
"a z a a u t u i u t t a t z a a i s < a g a a M U 9 + $ 0 u i 6 i y 6 u s 6 a a a a i 6 a a a a 7 i ",
"z a a 7 a t t i i t i u t a a a u i 5 a a a P C a & . : u i t t y a i u i 6 s a a w a t i a a u a u ",
"a a a 6 2 i a a a u 2 i a a a i 2 5 a a g 0 < < i m B y 0 < i a a z i < t a a a f 5 - i a a i 6 < i ",
"6 u u a a z t w i z a i 6 7 u a y i f 6 D 5 a a f 5 U 6 a a f t 6 i a a a t 6 u a i i a 6 w i a a f ",
"t a w a a a 6 a w a i i u a i u i f a 6 A 2 i a f 6 a i < < y t i < 6 0 i i t a u i a f 5 a w i a a ",
"u 6 2 a a a y t 2 7 a a a A 1 2 i i a a 6 6 a s z t 7 t m M c a S + % X a a i 2 2 y a f a 6 2 u a f ",
"a a i a i 6 y a t i a 2 * a A x i ! D ] < i a u 6 a a i a a 2 t E + = + 6 t i y 0 a u 0 a i y a a 6 ",
"a a a i i 0 5 y i i w z < = O < + g N M = a i a t i a a i w z < 6 q < 6 x < i i a u a 6 i i a u u a ",
"f a a 6 2 t t i a t 6 2 a a a = = = = u * y 5 5 t a a a t 6 2 t q < + < < i z a a 2 6 i a a a 6 6 6 ",
"t w u t 6 i t 5 a a t a i y a y u i o . % y 6 t u y 6 i 6 2 y t < n O 0 i a u i y i u a y 5 i t 0 i ",
"6 x t t a a < c w a a a 0 x u i z a t = 6 6 t i a - m t y i z 6 a x # a a i i a u z a y - c 2 0 t a ",
"u 6 2 a a a i 2 i u f a f 2 i 6 a y y 6 t 6 u a a a < u u z a a 0 g = a i z t t 2 a y y t < u 0 a f ",
"a u u a t t i a t i i 2 i a 0 i i t y a 2 t a u u a i t a i w u a 0 t i 2 t a y u a t y a t 6 a a 7 ",
"z a f t u t u i u y 2 V 2 a a f u m - a i a a a t u a a i 2 v 2 a t a 2 m < a a a a s 5 i t a a 4 c ",
"a a f 2 i u a a u 6 a 2 a a a i u 6 u u a a 7 u t a a a 7 a 2 i a a 6 i 6 i a f g 4 u t y a a 6 x 2 "
};
