/* XPM */
static char *result[] = {
/* columns rows colors chars-per-pixel */
"50 50 26 1 ",
"  c #0E0E0D",
". c #100F0F",
"X c #10100F",
"o c #141413",
"O c #181716",
"+ c #181817",
"@ c #1D1C1B",
"# c #211E1D",
"$ c #24201E",
"% c #28221F",
"& c #262321",
"* c #2A2423",
"= c #2B2926",
"- c #2F2628",
"; c #2E2B28",
": c #312B27",
"> c #312729",
", c #332D29",
"< c #392F2A",
"1 c #37302A",
"2 c #3A312C",
"3 c #3F3432",
"4 c #403431",
"5 c #473838",
"6 c #4B3B3B",
"7 c #513E41",
/* pixels */
"&--*#####@@##*@#%$@#@--&##---$###$@###&@#&&+&@#&#%",
"&-*#@#$#@@@#@&#@%$$##&#&O@>-@@#$@#+@##&$+&%%+&##$#",
"#%@+#O@#@@@@@@@@#%#@@OO@.O-#@@#O$@@@@@@@@##@##++@o",
"#&+###@@@@#@@#@@@++#@@#@.O#O@@#@$+@#@+&@@@@@@@@##.",
"@#O&#@##@@@@@@@@@#@@@@$#oO$O$@@#$@@@$@&@@@#+#@@##O",
"@##@@###@@##@@@@$#@@@$@@oO$###@#&@+#@@@@+@#@@@##@O",
"#$@&@@+@#&@+@@@#%#@+#+$@ +$#$@@@+@&@@@@@#&#@@@##@o",
"#*@@@@@@@&#@+@###@@@@%@@O+%@@@@@@@$&@+@@###@@@#@@O",
"$$##@@O@@@#@@@@##@@@@$@@oO*##@@O+###+@+@&#@@@#@@Oo",
"$#@+@@@@$$#@@@@#@#+$$@@@.@&@O@@@@&#$@@@@&@#o@&@@@o",
"@@+@@@##@#@O#@@@@@@@@==$.+#@-*@@#+$@+#@@@@@@@@@@@O",
"OOOOooooooOOoOoOoo++@@@@ o@@&@@OoXOo+++Ooooooooo@o",
"oOOoOoo. oo@o oO+o+$=@@+oo+@@@#@oooO@o .o+ooo++oOo",
"$$##&$$-$&>&+-&>=;11676=$$$=;1115&$-%#-#-&-*$=,,$$",
"@@OO@@@#@#@O.-$&#;==121#@@@#&;=*,-@#+o&%&@@@@@&$@@",
"@#@@@##@##@Oo*$%,;=*;;=##@#&&;=1;;,##.&&$#&@@@$@O@",
"@@+@$@$@@@@+o&$$;=;;;$1&@@@#=;,1;;;=@X%%@@@@@#+#@@",
"+$@@#$$$@+@+o$==;=&;==1$@+@&&,,11;=&=+#@@@@+@@@$@@",
"@@$#@$@@@@@@+1==;=;1;1=#@@@&,=1;=;;&;+$#@@@@$#$$+&",
"#@@$@@$@@@#++1;=;=,;;1*@@@$@=&;,;=;1=o=$@@@$@@$$@@",
"@@$@@$@@#@@$+2*1=1;11#&@@@+#$$;;=;;;=O,&$@###&@$@@",
"@++$@@+@@@=*+1;=&&1;$$@@##@+#@&&=&*=,@:,&++#@##@@@",
"@@@@$@#@@#=&@1;=;&=&@@$&;;&&$#@&=;,;=O;;&#@#@@@#+@",
"@@@@@@@@#$@@o*&@&$#@@@==;====@@@$&&&@X#*@#@#@#@@@@",
"   oXXo  o      o   oX@@+Xooo o X oo ooo . . +XOoo",
"@@@@$@+O@#@#@@&@@@@@#@$====$=#@@o+#@@@@*##++@@@+@+",
"&*&@&#%&#&#=$$&&%$$#$#;1=;61:*#$*&*&*#&&**$%#$@@$#",
"#&@@#+##@@#&=&===:###+&;o&3;#@@@**&&***&#####@@+#O",
"&*@@##@++@,==1===;=#+@$@o%1$@@#$=$=1;=,;&@@@@+@$+ ",
"@#+##@##@@======1%;;$@##o+$+#$=;1;==;=;=*@#+$@@@$O",
"+###@###@+#=;;==;1====$@o+$##%=;,;=;;,;*+##@@@@&@O",
"+&##@@@@##@@===;11=&===+ +$#====;=:;=;*@@#&@@+#@+O",
"%*@@@@@@###@+&-;,;;==1=@++&&==;;=;22=@@@#@&@@@#@@+",
"#%@#@@O@#@#@@@*,;;==1;&&o+&$=;=&==;;*@@@@&@@@@&@+o",
"$##@@@@@&##@@@@;=;&,;;=# @&&==;&=,1=@@@@&@@+@&@@@o",
"@@@@@@@##&@+@@@#&;==;==&X+#&====,;:#o#@@@@@@@@@@@+",
"@OOOOO#Oo@@+@#@@O&&&&*=&o++#=&#;*+++@+@@++@++o@@@O",
" ..O.OoOO....ooooOoOOO@+oo o&+OOoo.ooo.Oooo.X  .XO",
"$$--&&#---##@*&@###,1,2,@$&,213;%,-&#$**#@###%@#-#",
"#@+#@#@$##&+o>@#@&@&,22*@@@$*;=@$$#$@o*#&@&#@&&&&@",
"@$#+$+$@@&@+o&&#&@+@@;&+@$@$#=+#@@##+.#&&#@@+@#@o@",
"@#+@##$@#@@oo-###@@@#+#@@@@@+@$$@@#@#.%&@##@@#@#@@",
"@#+@#$&#@@@Oo##@@@+@@+&@@+@@+$$$&#@++o##@@+@@@+&&@",
"@@@##$+@##@@O#@+@@@#@##@#@@@##&+@@#@#+#@@@@+&@##@@",
"@@$#+$&@@@@Oo##@#@##&#&@@@##&+@$#@@@@ ##+@@#####@@",
"@@##@@@@@@#Oo#@#@&###+$@@@@#&@@@@@@#@.###@#######@",
"@++&@@+@+@@@o#+#++#&##@@@@++@@@@@@@@#o#@@++##&##@@",
"@@+#$$@+###Oo##+@+@@+@@@@@@@@&##@@#@@.##@@@+#++#o@",
"@@@&@@@#@#@oo&#+$@#@#+#@@@@+&+@@##@@@.@#+###+#@@@@",
"oooooooXoooooo.ooo oo.oO oooOXoX.oo.O .o.OoOOOoXoo"
};
